<?xml version="1.0" encoding="utf-8"?>
<!-- Generator: Adobe Illustrator 17.1.0, SVG Export Plug-In . SVG Version: 6.00 Build 0)  -->
<!DOCTYPE svg PUBLIC "-//W3C//DTD SVG 1.1//EN" "http://www.w3.org/Graphics/SVG/1.1/DTD/svg11.dtd">
<svg version="1.1" id="Layer_1" xmlns="http://www.w3.org/2000/svg" xmlns:xlink="http://www.w3.org/1999/xlink" x="0px" y="0px"
	 viewBox="476.7 124.1 447.9 561" enable-background="new 476.7 124.1 447.9 561" xml:space="preserve">
<path stroke="#000000" stroke-width="18" stroke-miterlimit="10" d="M700.6,133.1c-82.1,0.5-148.3,67.4-147.9,149.5v89.9h-13.5
	c-29.6,0-53.6,24-53.6,53.6v196.4c0,29.6,24,53.6,53.6,53.6H862c29.6,0,53.6-24,53.6-53.6V426.1c0-29.6-24-53.6-53.6-53.6h-13.5
	v-89.9C848.9,200.5,782.7,133.6,700.6,133.1z M564.7,282.6c0-75.1,60.8-136,135.9-136s136,60.8,136,135.9c0,0,0,0.1,0,0.1v89.9
	H564.7V282.6z M904,426.1v196.4c0,23-18.7,41.7-41.7,41.7H539.3c-23,0-41.7-18.7-41.7-41.7V426.1c0-23,18.7-41.7,41.7-41.7H862
	c23,0,41.7,18.7,41.7,41.7L904,426.1z"/>
<path stroke="#000000" stroke-width="16" stroke-miterlimit="10" d="M696.4,541.4c-1,1.1-1.6,2.5-1.7,4v53.3c0,3.3,2.7,6,6,6
	s6-2.7,6-6v-53c0-1.5-0.6-3-1.7-4c26.2-2.4,45.5-25.5,43.1-51.7c-2.4-26.2-25.5-45.5-51.7-43.1c-26.2,2.4-45.5,25.5-43.1,51.7
	c2.1,22.9,20.2,41,43.1,43.1L696.4,541.4z M700.6,458.1c19.7,0,35.7,16,35.7,35.7c0,19.7-16,35.7-35.7,35.7s-35.7-16-35.7-35.7
	C664.9,474.1,680.9,458.1,700.6,458.1z"/>
</svg>
