<?xml version="1.0" encoding="utf-8"?>
<!-- Generator: Adobe Illustrator 17.1.0, SVG Export Plug-In . SVG Version: 6.00 Build 0)  -->
<!DOCTYPE svg PUBLIC "-//W3C//DTD SVG 1.1 Tiny//EN" "http://www.w3.org/Graphics/SVG/1.1/DTD/svg11-tiny.dtd">
<svg version="1.1" baseProfile="tiny" id="Layer_1" xmlns="http://www.w3.org/2000/svg" xmlns:xlink="http://www.w3.org/1999/xlink"
	 x="0px" y="0px" viewBox="0 0 158.7 61.6" overflow="scroll" xml:space="preserve">
<path fill-rule="evenodd" fill="#A7955D" d="M153.7,21.9h1.1c0.2,0,0.4,0,0.5-0.1c0.1-0.1,0.2-0.1,0.3-0.2c0.1-0.1,0.1-0.2,0.1-0.4
	c0-0.2-0.1-0.3-0.2-0.5c-0.1-0.1-0.3-0.2-0.6-0.2h-1.2V21.9z M154.9,18.9c1.7,0,3.1,1.5,3.1,3.3s-1.4,3.3-3.1,3.3
	c-1.7,0-3.1-1.5-3.1-3.3S153.1,18.9,154.9,18.9z M154.9,18.1c2.1,0,3.9,1.8,3.9,4s-1.7,4-3.9,4c-2.1,0-3.9-1.8-3.9-4
	S152.7,18.1,154.9,18.1z M153.3,46.4c0.3,0,0.5,0.2,0.5,0.5c0,0.3-0.2,0.5-0.5,0.5H5.4c-0.3,0-0.5-0.2-0.5-0.5
	c0-0.3,0.2-0.5,0.5-0.5H153.3z M92.5,7.2L92.5,7.2L92.5,7.2z M92.5,7.2L92.5,7.2L92.5,7.2z M64.2,9.4L64.2,9.4 M76.3,15.5
	c-0.6-0.3-1.2-0.6-1.8-0.8c-0.7-0.3-1.5-0.6-2.1-0.8l0,0c-1.1-0.3-2.4-0.5-3.4-0.3c-0.6,0.1-1.1,0.3-1.5,0.6
	c-0.3,0.3-0.5,0.7-0.5,1.2c0,0.5,0.1,1,0.4,1.7c0.6,1.2,1.9,2.5,3.3,3.5c0.3,0.2,0.6,0.4,0.8,0.6c0.2,0.2,0.5,0.3,0.7,0.4
	c0.8-0.8,1.7-1.4,2.6-2c0.5-0.3,1-0.6,1.5-0.9c-0.2-0.5-0.3-1-0.3-1.5C76.1,16.5,76.2,16,76.3,15.5z M79,17c-0.6-0.4-1.3-0.8-2-1.1
	c-0.1,0.4-0.1,0.8-0.1,1.2c0,0.4,0,0.7,0.2,1.1c0.1,0,0.1-0.1,0.2-0.1C77.8,17.7,78.4,17.3,79,17z M86.8,24.2
	c-0.4,0.3-0.7,0.7-1.1,1.1c0.4,0.2,0.8,0.3,1,0.3c0.1,0,0.2,0,0.2-0.1c0-0.1,0.1-0.2,0.1-0.3C87.1,25,87,24.6,86.8,24.2z M85.2,26.1
	c0.9,0.5,1.6,0.7,2.1,0.6c0.3-0.1,0.6-0.2,0.8-0.4c0.2-0.2,0.4-0.5,0.4-0.9c0.1-0.6,0-1.4-0.5-2.2c-2.1-3.5-6.1-7.2-10.6-9.7
	c-0.9-0.5-1.8-0.9-2.7-1.3c-0.9-0.4-1.8-0.7-2.7-1l0,0c-1.5-0.4-3.3-0.5-4.8-0.1c-0.9,0.2-1.7,0.6-2.3,1.1c-0.5,0.5-0.9,1.2-0.9,2
	c0,0.7,0.2,1.6,0.8,2.6c0.9,1.6,2.4,3.4,4.1,4.7c0.3,0.3,0.7,0.5,1,0.7c0.3,0.2,0.6,0.3,0.9,0.5c0.2-0.2,0.4-0.5,0.6-0.7
	c-0.2-0.1-0.3-0.2-0.5-0.3c-0.3-0.2-0.6-0.4-0.9-0.6c-1.5-1.1-2.9-2.5-3.6-3.8c-0.4-0.8-0.5-1.5-0.5-2.1c0-0.8,0.3-1.4,0.8-1.8
	c0.5-0.4,1.1-0.7,1.9-0.8c1.2-0.2,2.6,0,3.8,0.3l0,0c0.7,0.2,1.4,0.5,2.2,0.8c0.8,0.3,1.6,0.7,2.4,1.1c4.2,2.2,8.6,5.6,10.1,8.4
	c0.4,0.7,0.6,1.4,0.6,1.9c0,0.3-0.1,0.6-0.3,0.8c-0.2,0.2-0.5,0.4-0.8,0.4c-0.4,0-0.9-0.1-1.6-0.5C85.2,26,85.2,26.1,85.2,26.1z
	 M70.4,23.5c-0.3-0.1-0.5-0.3-0.8-0.5c-0.4-0.2-0.7-0.5-1.1-0.8c-1.8-1.4-3.4-3.2-4.4-5c-0.6-1.1-0.9-2.1-0.9-3c0-1.1,0.4-2,1.1-2.7
	c0.7-0.7,1.6-1.1,2.6-1.4c1.6-0.4,3.5-0.3,5.2,0.1l0,0c0.9,0.3,1.9,0.6,2.8,1c0.9,0.4,1.8,0.8,2.7,1.3c4.6,2.5,8.8,6.4,11,10
	c0.6,1,0.8,2,0.6,2.8c-0.1,0.5-0.3,1-0.6,1.3c-0.3,0.3-0.8,0.6-1.3,0.7c-0.7,0.1-1.7-0.1-2.7-0.7c-0.2,0.3-0.3,0.7-0.5,1h74.1
	c0.2,0,0.4,0.2,0.4,0.4c0,0.2-0.2,0.4-0.4,0.4H83.7c0,0,0,0,0,0c0,0,0,0,0,0c0,0-0.1,0-0.1,0c-0.2-0.1-0.3-0.3-0.3-0.5
	c0.4-1.2,0.9-2.1,1.5-2.9c0.5-0.7,1.1-1.3,1.7-1.8c-0.2-0.4-0.5-0.7-0.8-1.1c-1.6,0.9-3.1,1.9-4.2,3.2c-1.1,1.2-1.9,2.6-2.3,4.5
	h79.3c0.2,0,0.4,0.2,0.4,0.4c0,0.2-0.2,0.4-0.4,0.4H79.4h-0.6h0h-0.3c-0.1,0-0.1,0-0.2,0c-0.2,0-0.4-0.3-0.3-0.5
	c0.1-0.3,0.1-0.6,0.2-1c0.5-1.8,1.3-3.2,2.4-4.4c1.2-1.3,2.7-2.4,4.3-3.3c-0.4-0.4-0.8-0.8-1.2-1.2c-1.9,1.1-3.8,2.4-5.3,3.9
	C77,26,75.9,28,75.3,30.6c0,0.2-0.3,0.4-0.5,0.3c-0.2-0.1-0.4-0.3-0.3-0.5c0.6-2.8,1.8-4.9,3.4-6.5c1.5-1.6,3.3-2.8,5.2-3.9
	c-0.4-0.4-0.9-0.7-1.3-1c-0.1,0-0.1,0.1-0.3,0.2c-3.7,2.3-8.5,5.2-9.6,11.5c0,0.2-0.2,0.4-0.4,0.4c0,0,0,0,0,0h-71
	c-0.2,0-0.4-0.2-0.4-0.4C0,30.2,0.2,30,0.4,30h70.7c1.3-6.4,6.1-9.4,9.9-11.7c-0.4-0.3-0.8-0.6-1.2-0.8c-0.8,0.5-1.5,0.9-2.2,1.3
	c-0.8,0.5-1.6,1-2.4,1.5c-2.1,1.3-3.9,3.1-5.2,5.3c-0.2,0.4-0.5,0.9-0.7,1.4c-0.2,0.5-0.4,1-0.5,1.5v0l0,0c0,0.1-0.1,0.2-0.1,0.2
	c0,0.1-0.1,0.1-0.2,0.1c0,0-0.1,0-0.1,0h-68c-0.2,0-0.4-0.2-0.4-0.4c0-0.2,0.2-0.4,0.4-0.4h67.7c0.1-0.4,0.3-0.8,0.5-1.2
	c0.2-0.5,0.5-1,0.7-1.4C69.7,24.6,70,24.1,70.4,23.5z M62.9,15.2c0.1,0.2,0.1,0.5-0.1,0.6c-0.2,0.1-0.4,0.1-0.6-0.1
	c-0.1-0.2-0.2-0.3-0.4-0.5c-0.6-1-0.7-2.2-0.4-3.3c0.2-1.1,0.9-2.1,1.7-2.9c0.2-0.2,0.4-0.3,0.6-0.4l0,0c1.2-0.7,2.4-1.1,3.7-1.3
	c1.3-0.2,2.6-0.2,4,0.1c6.9,1.2,14.3,7.3,17.6,12.8c0.5,0.8,1.1,1.9,1.4,2.9c0.3,1.1,0.4,2.3-0.2,3.3c-0.1,0.2-0.4,0.3-0.6,0.2
	c-0.2-0.1-0.3-0.4-0.2-0.6c0.4-0.8,0.4-1.8,0.1-2.7c-0.3-1-0.8-1.9-1.3-2.7C85.2,15.3,78,9.3,71.3,8.2C70.1,8,68.8,8,67.6,8.2
	c-1.2,0.2-2.3,0.6-3.4,1.2l0,0c-0.2,0.1-0.3,0.2-0.5,0.4c-0.7,0.6-1.2,1.5-1.4,2.4C62,13,62.1,14,62.6,14.8
	C62.7,14.9,62.7,15.1,62.9,15.2z M81.8,5c2.2-2.9,6.5-5,10.1-5c0.7,0,1.5,0.1,2.1,0.3c0.7,0.2,1.3,0.5,1.9,0.9l0,0l0,0l0,0
	c1.1,0.8,2.2,2.6,2.2,4.8c0,0.4-0.1,0.9-0.1,1.3c-0.1,0.5-0.2,0.9-0.4,1.4h0l0,0c-0.7,1.7-1.6,3.1-2.7,4.3c-1,1.1-2.1,2.1-3.4,3
	c0.3,0.6,0.5,1.2,0.7,1.8c1.4-0.8,2.7-1.8,3.8-2.9c1.3-1.3,2.4-2.8,3.2-4.7l0,0c0.2-0.4,0.3-0.8,0.4-1.2c0.1-0.4,0.2-0.7,0.2-1.1
	c0.2-1.8-0.5-3.2-1.1-4c-0.2-0.2-0.1-0.4,0-0.6c0.2-0.2,0.4-0.2,0.6,0c0.8,0.9,1.5,2.6,1.4,4.6c0,0.4-0.1,0.8-0.2,1.2
	c-0.1,0.4-0.3,0.9-0.5,1.3l0,0c-0.9,2-2.1,3.6-3.4,5c-1.3,1.3-2.7,2.3-4.2,3.2c0.1,0.4,0.2,0.9,0.2,1.3c1.7-0.9,3.7-2.1,5.3-3.8
	c1.7-1.8,2.9-3.9,2.5-6.4c0-0.2,0.1-0.5,0.3-0.5c0.2,0,0.4,0.1,0.5,0.3c0.5,2.8-0.8,5.2-2.7,7.2c-1.8,1.8-4.1,3.2-5.9,4.1
	c0,1.4-0.2,2.8-0.8,4.1c-0.1,0.2-0.2,0.3-0.4,0.2c0,0-0.1,0-0.1,0c-0.2-0.1-0.4-0.3-0.3-0.5c0.4-1.8-0.3-4-1.6-6.1
	c-0.2-0.4-0.5-0.8-0.8-1.3c-0.3-0.4-0.6-0.8-0.9-1.2l0,0l0,0l0,0c-2.9-4-7.4-7.6-12.2-9.6c-0.9-0.4-1.9-0.7-2.8-0.9
	c-0.9-0.2-1.9-0.4-2.8-0.5l0,0c-0.1,0-0.1,0-0.2,0c-1.4-0.1-3.3,0.2-5,0.9c-1.6,0.7-2.8,1.9-3,3.6c0,0.1,0,0.1,0,0.1
	c0,0.2-0.2,0.4-0.4,0.4c-0.2,0-0.4-0.2-0.4-0.5c0,0,0,0,0-0.1c0,0,0,0,0,0c0,0,0,0,0,0c0-0.6,0-1.2,0.1-1.7c0.1-0.6,0.3-1.1,0.5-1.6
	c1-2.6,3.4-4.5,6.1-5.1l0,0c0.6-0.1,1.1-0.2,1.7-0.2c0.6,0,1.1,0,1.7,0c2.9,0.2,6,1.4,8.9,2.9l0,0C80.4,4.2,81.1,4.6,81.8,5z
	 M83.3,6.1c1-1.3,2.7-2.8,4.6-3.7c0.4-0.2,0.8-0.4,1.2-0.5c0.4-0.1,0.8-0.2,1.3-0.3l0,0l0,0v0c1.2-0.2,2.3,0,3.2,0.5
	c0.6,0.3,1.1,0.8,1.5,1.3c0.4,0.5,0.6,1.2,0.7,1.9c0.2,1,0,2.2-0.7,3.4c-0.7,1.2-1.4,2.2-2.3,3.1c-0.7,0.8-1.6,1.4-2.4,2
	c0.3,0.4,0.5,0.9,0.7,1.4c1.1-0.8,2.2-1.7,3.1-2.8c1-1.2,1.9-2.5,2.6-4.1l0,0c0.2-0.4,0.3-0.8,0.4-1.2c0.1-0.4,0.1-0.8,0.1-1.2
	c0-1.9-0.9-3.4-1.8-4.1l0,0l0,0l0,0c-0.5-0.3-1-0.6-1.6-0.7c-0.6-0.2-1.3-0.2-1.9-0.2c-3.4,0-7.4,2-9.4,4.6c0.1,0,0.1,0.1,0.2,0.1
	C82.9,5.8,83.1,5.9,83.3,6.1z M84.9,7.5c0.7-1,1.9-2.3,3.2-3.2c1.5-1,3.1-1.4,4.5-0.5h0c0,0,0,0,0.1,0h0c0.6,0.4,1,1.2,0.9,2.3
	c0,0.2-0.1,0.4-0.1,0.7c-0.1,0.2-0.1,0.4-0.3,0.7c0,0,0,0,0,0l0,0c-0.5,1.1-1.1,2-1.9,2.7c-0.7,0.7-1.4,1.3-2.2,1.8
	c0.3,0.3,0.5,0.7,0.7,1c0.8-0.6,1.6-1.2,2.3-1.9c0.8-0.8,1.5-1.7,2.1-2.9c0.5-1,0.7-2,0.6-2.9c-0.1-0.6-0.3-1.1-0.6-1.5
	c-0.3-0.4-0.7-0.8-1.2-1.1c-0.7-0.4-1.7-0.6-2.6-0.4l0,0l0,0v0c-0.4,0.1-0.8,0.2-1.1,0.3c-0.4,0.1-0.7,0.3-1.1,0.4
	c-1.8,0.9-3.3,2.2-4.3,3.5C84.3,6.9,84.6,7.2,84.9,7.5z M88.6,11.4c0.8-0.5,1.5-1.1,2.1-1.7c0.7-0.7,1.3-1.5,1.7-2.5c0,0,0,0,0,0
	l0,0c0,0,0,0,0,0c0,0,0,0,0,0c0,0,0,0,0,0c0,0,0,0,0,0l0,0l0,0c0.1-0.2,0.2-0.4,0.2-0.6c0.1-0.2,0.1-0.4,0.1-0.5
	c0.1-0.8-0.1-1.2-0.5-1.5l0,0c0,0,0,0,0,0l0,0c-1-0.7-2.4-0.3-3.6,0.5c-1.3,0.8-2.4,2.1-3.1,3C86.7,9.1,87.7,10.2,88.6,11.4z
	 M89.4,14C89.4,14,89.4,14,89.4,14c-0.1-0.1-0.1-0.1-0.1-0.1c-1.2-1.9-2.7-3.7-4.4-5.2c-0.9-0.9-1.9-1.6-2.8-2.3
	c-0.1,0-0.1-0.1-0.2-0.1c-0.2-0.2-0.5-0.3-0.7-0.5c-0.6-0.4-1.3-0.8-1.9-1.2l0,0c-2.8-1.5-5.8-2.6-8.6-2.8c-0.5,0-1.1,0-1.6,0
	c-0.5,0-1,0.1-1.6,0.2l0,0c-2.4,0.5-4.5,2.3-5.5,4.6c0,0,0,0.1,0,0.1c0.6-0.6,1.4-1.1,2.2-1.5c1.8-0.8,3.9-1.1,5.4-1
	c0.1,0,0.2,0,0.2,0l0,0c1,0.1,2,0.3,3,0.5c1,0.2,2,0.6,2.9,1c5,2,9.5,5.8,12.5,9.9l0,0l0,0l0,0c0.3,0.4,0.6,0.9,0.9,1.3
	c0.3,0.4,0.5,0.9,0.8,1.3c0.8,1.4,1.4,2.7,1.6,4.1c0.1-1.2,0.1-2.4-0.2-3.6c0,0,0-0.1,0-0.1C91,17,90.3,15.4,89.4,14z M141.6,37.6
	h1.1c0.4,0,0.9,0,1.5-0.1c0.6,0,1-0.1,1.4-0.1c0,0,0-0.1,0-0.1c0,0,0-0.1,0-0.1c0-0.1,0-0.2,0.1-0.3c0,0,0-0.1,0-0.1
	c0,0,0-0.1,0-0.1c0,0,0-0.1,0-0.1h0.4c0,0.1-0.1,0.3-0.1,0.6c0,0.1,0,0.2,0,0.4c0,0,0,0.1,0,0.1c0,0.1,0,0.1,0,0.1h-2.1
	c0.9,0.2,1.6,0.3,2.1,0.5c0,0.4,0,0.9,0.1,1.3h-0.5c-0.1-0.3-0.1-0.6-0.1-1c-0.4-0.2-0.9-0.4-1.5-0.4c-0.6-0.1-1-0.1-1.4-0.1h-1.1
	v4.5V43v0.4v0.4h1.3c0.4,0,0.7,0,1,0c0.3,0,0.7-0.1,1.2-0.2c0.5-0.1,1-0.3,1.5-0.5c0-0.1,0-0.2,0-0.3c0-0.1,0-0.3,0-0.3
	c0-0.2,0-0.4,0.1-0.6h0.3v0.6V43v0.4c-0.1,0-0.1,0.1-0.2,0.1c-0.1,0-0.1,0-0.2,0.1c-0.3,0.1-0.5,0.1-0.7,0.2c-0.1,0-0.2,0-0.3,0.1
	c-0.1,0-0.3,0.1-0.4,0.1c-0.1,0-0.4,0.1-0.7,0.1h2.5c0,0.1,0,0.2,0,0.2v0.2v0.2c0,0,0,0.1,0,0.1h-0.4c0,0,0-0.1,0-0.2v-0.1v-0.1
	h-5.6v-6.1v-0.6V36v-1.4v-1.8h2.4h0.4c0.1,0,0.3,0,0.4,0c0.1,0,0.2,0,0.4,0h0.8c0.1,0,0.2,0,0.4,0c0.2,0,0.3,0,0.4,0h0.3
	c0,0,0-0.1,0-0.1c0,0,0-0.1,0.1-0.1h0.3c0,0.2-0.1,0.4-0.1,0.7l-2.3-0.2c1.1,0.2,1.8,0.4,2.2,0.6c0,0,0,0.1,0,0.1c0,0,0,0.1,0,0.1
	c0,0.1,0,0.2-0.1,0.4c0,0.2,0,0.4-0.1,0.5h-0.4c0-0.1,0-0.2,0-0.4c0-0.1,0-0.3,0-0.3c-0.5-0.3-1.1-0.5-1.6-0.6
	c-0.6-0.1-1.2-0.1-1.8-0.2h-0.5h-0.4c0,0.3,0,0.5,0,0.5c0,0.3,0,0.6-0.1,1.1c0,0.4,0,0.8,0,1c0,0.1,0,0.3,0,0.5c0,0,0,0.1,0,0.2
	V37.6z M139.1,44.3c0.2-0.1,0.4-0.2,0.6-0.3c0.1,0,0.1,0,0.1-0.1c0,0,0.1,0,0.1,0c0,0,0.1,0,0.1,0c0-0.1,0-0.2,0-0.3
	c0-0.1,0-0.1,0-0.2v-1.6v-1.7c0-0.3,0-0.8,0-1.6c0-0.8,0-1.4,0-1.9c0-0.4,0-1-0.1-1.6c0-0.6-0.1-1.2-0.2-1.7c0,0-0.2-0.1-0.5-0.1
	c0,0-0.1,0-0.1,0c0,0-0.1,0-0.1,0c0,0,0,0-0.1,0c0,0-0.1,0-0.1,0v-0.4c0.1,0,0.2,0,0.4,0c0.2,0,0.3,0,0.4,0h0.8c0,0,0,0.4,0.1,1.1
	c0,0.7,0.1,1.6,0.1,2.7c0,1.1,0.1,2.3,0.1,3.6V42v1.6c0,0.2,0,0.3,0,0.4c0,0.1,0,0.2,0,0.4c-0.5,0.1-1,0.2-1.5,0.4V44.3z
	 M130.3,33.1c-0.3-0.1-0.5-0.2-0.6-0.3v-0.4c0.2,0.1,0.5,0.2,0.7,0.2c0.2,0.1,0.5,0.1,0.8,0.1c0,0.2,0,0.4,0,0.8v1.6v1.7
	c0,1.3,0,2.7-0.1,4.1c0,1.4-0.1,2.5-0.2,3.3h-0.8c-0.3,0-0.5,0-0.8,0V44c0,0,0.1,0,0.1,0c0,0,0,0,0.1,0c0.1,0,0.1,0,0.1,0
	c0,0,0.1,0,0.1,0c0.1,0,0.2,0,0.2,0c0,0,0.1,0,0.1,0c0,0,0.1,0,0.2,0c0.1-0.5,0.1-1.2,0.2-2c0.1-0.8,0.1-1.6,0.1-2.5
	c0-0.8,0-1.6,0-2.4c0-0.2,0-0.5,0-0.8c0-0.4,0-0.7,0-0.8c0-0.7,0-1.3,0-1.6c0-0.1,0-0.2,0-0.3c0-0.1,0-0.1,0-0.2c0,0,0,0,0,0
	c0,0,0,0,0,0c0,0-0.1,0-0.1-0.1C130.3,33.1,130.3,33.1,130.3,33.1z M132.6,33.2h-0.3v7.3v0.6c0,0.1,0,0.3,0,0.4c0,0.1,0,0.3,0,0.5
	v1.3c0,0.1,0,0.3,0,0.6c0.2,0,0.6,0,1.1,0c0.6,0,1.1,0,1.6-0.1c0.4-0.1,0.8-0.2,1-0.3c0.2-0.1,0.4-0.2,0.5-0.3c0-0.1,0-0.2,0-0.2
	c0-0.1,0-0.1,0-0.2c0-0.1,0-0.2,0-0.3c0-0.1,0-0.2,0-0.3h0.3c0,0.6,0,1,0.1,1.3c0,0-0.1,0-0.1,0.1c-0.2,0-0.3,0.1-0.3,0.1
	c-0.1,0-0.2,0-0.3,0.1c-0.1,0-0.2,0.1-0.3,0.1c-0.2,0-0.4,0.1-0.5,0.1c-0.1,0-0.2,0-0.3,0.1c-0.1,0-0.1,0-0.2,0h2
	c0,0.1,0,0.3,0.1,0.4c0,0.1,0,0.1,0,0.1c0,0,0,0.1,0,0.1c0,0,0,0,0,0c0,0,0,0,0,0h-0.3c0-0.1-0.1-0.2-0.1-0.3h-0.2
	c-0.1,0-0.1,0-0.2,0c-0.1,0-0.1,0-0.2,0c-0.2,0-0.3,0-0.4,0c-0.1,0-0.2,0-0.3,0c-0.1,0-0.3,0-0.3,0c-0.1,0-0.3,0-0.5,0h-2.9
	c0-0.2,0-0.6,0-1c0-0.2,0-0.4,0-0.6c0-0.1,0-0.3,0-0.5c0-0.2,0-0.3,0-0.5c0-0.1,0-0.3,0-0.5c0-0.2,0-0.3,0-0.4c0-0.1,0-0.2,0-0.4
	l0-7.6c0.4,0,0.7,0,0.9,0c0.1,0,0.2,0,0.2,0c0.1,0,0.2,0,0.2,0c0.1,0,0.2,0,0.2,0c0.1,0,0.3,0,0.4,0v0.4c-0.1,0-0.2,0-0.3,0.1
	c-0.1,0-0.3,0.1-0.5,0.1C132.9,33.2,132.8,33.2,132.6,33.2z M118.8,32.9l4.3,6.7v2.5v1.6v0.8c-0.2,0-0.5,0.1-0.7,0.1
	c-0.2,0.1-0.5,0.1-0.7,0.2v-0.4c0.1,0,0.3-0.1,0.6-0.3c0,0,0,0,0.1,0c0,0,0,0,0.1,0c0,0,0,0,0.1,0c0,0,0,0,0.1,0c0-0.1,0-0.2,0-0.3
	c0-0.1,0-0.1,0-0.2v-1.6v-2.2l-3.6-5.6c-0.1-0.1-0.1-0.2-0.2-0.2c0,0-0.1-0.2-0.3-0.4c-0.1-0.2-0.2-0.3-0.3-0.4c-0.1,0-0.2,0-0.2,0
	c-0.2,0-0.3,0-0.4,0c0,0-0.1,0-0.1,0c0,0-0.1,0-0.2,0v-0.2c0.3,0,0.5,0,0.8,0c0.2,0,0.3,0,0.4,0H118.8z M123.6,39.9l0.6-0.9v2.8
	c0,0.3,0,0.5,0,0.7c0,0.2,0,0.4,0,0.6c0,0.2,0,0.5,0,0.8c0,0,0.1,0,0.3,0c0.1,0,0.3,0.1,0.4,0.1c0.2,0,0.3,0.1,0.3,0.1l0,0.4
	c-0.5-0.1-0.9-0.2-1.2-0.2c-0.2,0-0.3,0-0.4,0c0-0.5,0-1,0-1.3v-1.2V39.9z M123.5,38.6l1.1-1.7c0.1-0.1,0.2-0.3,0.2-0.5
	c0-0.1,0.1-0.2,0.2-0.3c0.1-0.1,0.1-0.2,0.2-0.3c0.5-0.9,0.7-1.8,0.7-2.5c0,0-0.1,0-0.1,0c0,0-0.1,0-0.2,0c-0.1,0-0.2,0-0.3,0
	c-0.1,0-0.1,0-0.2,0c-0.1,0-0.2,0-0.3,0l0-0.2c0.1,0,0.2,0,0.3,0c0.1,0,0.2,0,0.3,0c0.1,0,0.2,0,0.3,0h0.4c0.1,0,0.1,0,0.1,0
	c0,0,0.1,0,0.1,0v0.1c0,0.1,0,0.1,0,0.2c0,0.1,0,0.2,0,0.3c0,0.3-0.1,0.6-0.3,1.1l1.2-1.7h0.3h0.4c0,0,0.2,0,0.4,0h0.2l-0.1,0.2
	c-0.1,0-0.4,0-0.8,0c-0.1,0.1-0.2,0.2-0.3,0.4c-0.2,0.2-0.4,0.5-0.7,1c-0.1,0.1-0.1,0.2-0.2,0.3c0,0-0.1,0.1-0.1,0.1
	c0,0,0,0.1-0.1,0.1l-2.7,4.3l-2.6-3.9c0-0.1-0.1-0.2-0.1-0.2c-0.1-0.2-0.2-0.4-0.3-0.5c-0.1-0.1-0.1-0.2-0.2-0.3
	c-0.3-0.5-0.6-1-0.8-1.5h0.5c0.2,0,0.4,0,0.7,0c0.1,0,0.2,0,0.3,0c0.1,0,0.2,0,0.3,0c0.1,0,0.2,0,0.3,0l0,0.2c-0.1,0-0.2,0-0.3,0
	c-0.1,0-0.2,0-0.4,0c-0.1,0-0.2,0-0.2,0c-0.1,0-0.2,0-0.3,0c0,0.1,0.1,0.2,0.1,0.3c0,0.1,0.1,0.2,0.1,0.3c0.1,0.1,0.1,0.3,0.2,0.3
	c0,0.1,0.1,0.2,0.2,0.3c0.1,0.1,0.1,0.2,0.2,0.3c0.1,0.1,0.1,0.2,0.1,0.3c0,0.1,0.1,0.1,0.1,0.1c0,0,0,0.1,0.1,0.1L123.5,38.6z
	 M111.1,33.4c-1.2,0-2.1,0.2-2.9,0.6c0,0.2,0,0.7,0,1.2H108c0-0.2,0-0.5,0-0.8c0-0.3-0.1-0.6-0.1-0.8c0.3-0.1,0.5-0.1,0.7-0.2
	c0.1,0,0.1,0,0.3-0.1c0.1,0,0.2-0.1,0.3-0.1c0.1,0,0.1,0,0.2-0.1c0,0,0.1,0,0.2-0.1h-1.6c0-0.2,0-0.5-0.1-0.7h0.4c0,0.1,0,0.2,0,0.3
	c0.6,0,1.1,0.1,1.6,0.1l2,0c0.1,1,0.2,1.7,0.2,2.4c0,0.2,0,0.5,0,0.9c0,0.4,0,0.7,0,1c0,0.3,0,0.6,0,0.9c0,0.3,0,0.6,0,0.8v1.3V42
	v1.6v0.8c-0.3,0-0.5,0.1-0.8,0.1c-0.2,0.1-0.5,0.1-0.6,0.2v-0.4c0.1-0.1,0.2-0.1,0.2-0.1c0,0,0.1,0,0.2-0.1c0.1,0,0.1-0.1,0.1-0.1
	c0,0,0.1,0,0.1,0c0,0,0.1,0,0.1-0.1c0,0,0,0,0,0c0,0,0,0,0,0c0-0.1,0-0.1,0-0.2c0-0.1,0-0.1,0-0.2c0-0.4,0-0.9,0-1.7v-1.7
	c0-0.3,0-0.7,0-1c0-0.4,0-0.9,0-1.7c0-0.8-0.1-1.5-0.1-2.2C111.3,34.5,111.2,33.9,111.1,33.4z M112.6,33l2,0c0,0,0.3,0,0.6,0
	c0.4,0,0.7,0,0.9-0.1c0-0.1,0-0.2,0.1-0.3h0.3c-0.1,0.2-0.1,0.5-0.1,0.7H115c0.1,0,0.1,0,0.2,0.1c0.1,0,0.1,0,0.2,0.1
	c0.1,0,0.1,0,0.3,0.1c0.1,0,0.2,0.1,0.3,0.1c0.2,0,0.4,0.1,0.7,0.2c-0.1,0.6-0.1,1.1-0.1,1.6h-0.4c0-0.6,0-1,0.1-1.2
	c-0.7-0.4-1.7-0.6-2.9-0.6c-0.1,0.5-0.1,1.1-0.1,2v1.7c0,0.3,0,0.6,0,0.8c0,0.2,0,0.4,0,0.7v1.4v1.7c0,0.3,0,0.5,0,0.7
	c0,0.2,0,0.4,0,0.6c0,0.2,0,0.5,0,0.8c0.3,0,0.7,0.1,1,0.2l0,0.4c-0.5-0.1-0.9-0.1-1.2-0.1c-0.2,0-0.3,0-0.4,0c0-0.2,0-0.4,0-0.7
	c0-0.2,0-0.4,0-0.7c0-0.1,0-0.3,0-0.6c0-0.3,0-0.5,0-0.6c0-0.4,0-0.7,0-0.9c0-0.2,0-0.5,0-0.7v-1.5v-1.3c0-0.2,0-0.4,0-0.6
	c0-0.2,0-0.4,0-0.7c0-0.3,0-0.5,0-0.6c0-0.7,0-1.3,0-1.6C112.6,33.5,112.6,33.2,112.6,33z M105.2,44c-0.2,0.2-0.5,0.3-0.8,0.4
	c-0.3,0.1-0.6,0.2-0.8,0.2c-0.3,0-0.5,0.1-0.8,0.1c-0.3,0-0.5,0-0.8,0c-0.3,0-0.7,0-1.1-0.1c-0.4-0.1-0.9-0.2-1.4-0.5
	c-0.5-0.3-1-0.6-1.5-1.1l0.3-0.3c0.6,0.7,1.3,1.2,2,1.5c-0.3-0.2-0.6-0.5-0.9-0.9c-0.3-0.4-0.6-0.7-0.7-1l0.5-0.3
	c0.2,0.5,0.4,0.9,0.7,1.2c0.3,0.3,0.6,0.5,0.9,0.7c0.3,0.1,0.6,0.2,0.9,0.3c0.3,0,0.4,0.1,0.5,0.1c0.6,0,1.1,0,1.5-0.1
	c0.4-0.1,0.8-0.3,1.2-0.5c0.7-0.5,1-1.1,1-1.9c0-0.4-0.1-0.8-0.3-1.2c-0.2-0.4-0.5-0.7-0.9-1.1c-0.4-0.3-0.9-0.7-1.5-1
	c-0.1,0-0.4-0.2-0.9-0.5c-0.5-0.3-1-0.5-1.3-0.7c-0.3-0.2-0.6-0.5-0.8-0.8c-0.2-0.3-0.3-0.6-0.4-1c0-0.4,0.1-0.8,0.3-1.1
	c0.2-0.3,0.4-0.6,0.7-0.7c0.3-0.2,0.6-0.3,1-0.3c0.2,0,0.4,0,0.7,0.1c-0.8,0.1-1.4,0.3-1.7,0.6c-0.3,0.3-0.5,0.7-0.5,1.3
	c0,0.3,0.1,0.6,0.2,0.9c0.2,0.2,0.3,0.4,0.6,0.6c0.2,0.2,0.6,0.4,1.1,0.6c0.5,0.2,0.8,0.4,1,0.5c1,0.5,1.7,1,2.4,1.7
	c0.6,0.7,0.9,1.3,0.9,2c0,0.3,0,0.6-0.1,0.8c0,0.2-0.2,0.5-0.3,0.7C105.9,43.4,105.6,43.7,105.2,44z M105.3,41.5
	c0,0.4-0.1,0.6-0.2,0.9c-0.1,0.2-0.4,0.5-0.8,0.9c0.2-0.3,0.3-0.5,0.4-0.7c0-0.2,0.1-0.4,0.1-0.6v-0.4c0-0.4-0.1-0.8-0.4-1.1
	c-0.2-0.3-0.6-0.6-1-0.9c-0.4-0.3-1.1-0.6-1.9-1.1c-0.3-0.2-0.6-0.3-1-0.5c-0.4-0.2-0.7-0.4-1-0.6c-0.3-0.2-0.5-0.5-0.7-0.8
	c-0.2-0.3-0.3-0.7-0.4-1.2c0-0.5,0.1-1,0.4-1.4c0.3-0.4,0.6-0.8,1.2-1.1c0.5-0.3,1.2-0.4,1.9-0.4c0.8,0,1.6,0.1,2.3,0.3
	c0.7,0.2,1.3,0.4,1.6,0.6c0.1-0.2,0.1-0.4,0.2-0.4l0.3,0.1c0,0.1,0,0.1-0.1,0.1c0,0,0,0.1-0.1,0.1c0,0,0,0,0,0.1
	c0,0.1,0,0.1-0.1,0.2c0,0.1-0.1,0.2-0.1,0.4c-0.2-0.1-0.5-0.3-0.8-0.4c-0.4-0.2-0.7-0.3-0.9-0.4c0.3,0.2,0.6,0.5,0.9,0.7
	c0,0.1,0.1,0.1,0.2,0.2c0.1,0.1,0.2,0.2,0.3,0.3c0,0,0.1,0.1,0.1,0.1c0.1,0,0.1,0.1,0.1,0.1c-0.1,0.5-0.2,0.9-0.2,1.2l-0.3-0.1v-0.2
	v-0.2c0-0.1,0-0.1,0-0.2c0,0,0-0.1,0-0.2c0-0.1,0-0.1,0-0.1c-0.4-0.5-0.7-0.9-1.1-1.2c-0.4-0.3-0.8-0.5-1.2-0.6
	c-0.4-0.1-0.8-0.2-1.2-0.2c-0.5,0-1,0.1-1.5,0.2c-0.4,0.2-0.8,0.4-1,0.8c-0.3,0.3-0.4,0.8-0.4,1.3c0,0.4,0.1,0.8,0.3,1.1
	c0.2,0.3,0.4,0.6,0.6,0.8c0.2,0.2,0.5,0.4,0.8,0.5c0.3,0.2,0.6,0.3,0.9,0.5c0.7,0.4,1.2,0.7,1.6,0.9c0.4,0.2,0.7,0.5,1,0.7
	c0.3,0.2,0.5,0.5,0.7,0.8C105.3,40.8,105.3,41.1,105.3,41.5z M84.3,33.1c-0.3-0.1-0.5-0.2-0.6-0.3v-0.4c0.2,0.1,0.5,0.2,0.7,0.2
	c0.2,0.1,0.5,0.1,0.8,0.1c0,0.2,0,0.4,0,0.8v1.6v1.7c0,1.3,0,2.7-0.1,4.1c0,1.4-0.1,2.5-0.2,3.3h-0.8c-0.2,0-0.5,0-0.8,0V44
	c0,0,0.1,0,0.1,0c0,0,0,0,0.1,0c0.1,0,0.1,0,0.1,0c0,0,0.1,0,0.1,0c0.1,0,0.2,0,0.2,0c0,0,0.1,0,0.1,0c0,0,0.1,0,0.2,0
	c0.1-0.5,0.1-1.2,0.2-2c0.1-0.8,0.1-1.6,0.1-2.5c0-0.8,0-1.6,0-2.4c0-0.2,0-0.5,0-0.8c0-0.4,0-0.7,0-0.8c0-0.7,0-1.3,0-1.6
	c0-0.1,0-0.2,0-0.3c0-0.1,0-0.1,0-0.2c0,0,0,0,0,0c0,0,0,0,0,0c0,0-0.1,0-0.1-0.1C84.4,33.1,84.3,33.1,84.3,33.1z M86.7,33.2h-0.3
	v7.3v0.6c0,0.1,0,0.3,0,0.4c0,0.1,0,0.3,0,0.5v1.3c0,0.1,0,0.3,0,0.6c0.2,0,0.6,0,1.1,0c0.6,0,1.1,0,1.6-0.1c0.4-0.1,0.8-0.2,1-0.3
	c0.2-0.1,0.4-0.2,0.5-0.3c0-0.1,0-0.2,0-0.2c0-0.1,0-0.1,0-0.2c0-0.1,0-0.2,0-0.3c0-0.1,0-0.2,0-0.3h0.3c0,0.6,0,1,0.1,1.3
	c0,0-0.1,0-0.1,0.1c-0.2,0-0.3,0.1-0.3,0.1c-0.1,0-0.2,0-0.3,0.1c-0.1,0-0.2,0.1-0.3,0.1c-0.2,0-0.4,0.1-0.5,0.1
	c-0.1,0-0.2,0-0.3,0.1c-0.1,0-0.1,0-0.2,0h2c0,0.1,0,0.3,0.1,0.4c0,0.1,0,0.1,0,0.1c0,0,0,0.1,0,0.1c0,0,0,0,0,0c0,0,0,0,0,0h-0.3
	c0-0.1-0.1-0.2-0.1-0.3h-0.2c-0.1,0-0.1,0-0.2,0c-0.1,0-0.1,0-0.2,0c-0.2,0-0.3,0-0.4,0c-0.1,0-0.2,0-0.3,0c-0.1,0-0.3,0-0.3,0
	c-0.1,0-0.3,0-0.5,0h-2.9c0-0.2,0-0.6,0-1c0-0.2,0-0.4,0-0.6c0-0.1,0-0.3,0-0.5c0-0.2,0-0.3,0-0.5c0-0.1,0-0.3,0-0.5
	c0-0.2,0-0.3,0-0.4c0-0.1,0-0.2,0-0.4l0-7.6c0.4,0,0.7,0,0.9,0c0.1,0,0.2,0,0.2,0c0.1,0,0.2,0,0.2,0c0.1,0,0.2,0,0.2,0
	c0.1,0,0.3,0,0.4,0v0.4c-0.1,0-0.2,0-0.3,0.1c-0.1,0-0.3,0.1-0.5,0.1C87,33.2,86.8,33.2,86.7,33.2z M74.1,39.6h4.3L76,33.8
	L74.1,39.6z M78.5,40.2h-4.6c-0.3,0.8-0.5,1.5-0.5,2.1c-0.1,0.6-0.1,1.1-0.1,1.6c0.2,0,0.6,0.1,1.2,0.1v0.4
	c-0.7-0.1-1.2-0.1-1.6-0.1l0.4-2.8l-1,2.8c-0.5,0.1-0.9,0.2-1.2,0.4v-0.4c0.1,0,0.4-0.1,0.9-0.3c0-0.1,0.1-0.1,0.1-0.2
	c0,0,0-0.1,0.1-0.1c0-0.1,0.2-0.4,0.3-0.8c0.1-0.2,0.1-0.4,0.2-0.5c0.1-0.2,0.1-0.3,0.2-0.4c0.1-0.1,0.2-0.5,0.4-1
	c0-0.1,0.1-0.1,0.1-0.2c0,0,0-0.1,0.1-0.1l2.6-7.7c-0.1,0-0.3,0-0.5,0c-0.1,0-0.2,0-0.3,0c-0.1,0-0.2,0-0.4,0c-0.1,0-0.2,0-0.2,0
	v-0.4h0.3h0.5h0.5H76c0.2,0.4,0.4,0.8,0.5,1.2c0.1,0.3,0.3,0.7,0.4,1c0.1,0.4,0.2,0.7,0.3,0.9l3.4,8.7c-0.4,0-1,0.1-1.8,0.4v-0.4
	c0.3,0,0.6-0.1,1-0.3c0-0.1-0.1-0.2-0.1-0.3c0-0.1,0-0.2-0.1-0.2c0-0.2-0.1-0.6-0.3-1c-0.1-0.3-0.2-0.7-0.4-1.2
	C78.8,40.9,78.7,40.5,78.5,40.2z M77.2,32.5c0.1,0.2,0.3,0.7,0.6,1.5c0.4,1.2,0.7,2.1,1,2.8c0.1,0.2,0.2,0.5,0.4,0.9
	c0.2,0.4,0.3,0.8,0.5,1.2c0.2,0.4,0.3,0.7,0.3,0.9c0,0.1,0.2,0.4,0.4,1.1c0.2,0.7,0.5,1.2,0.6,1.7c0.1,0.3,0.3,0.8,0.5,1.3
	c0.1,0,0.2,0,0.2,0.1c0.1,0,0.2,0,0.3,0c0.1,0,0.2,0,0.3,0c0,0,0,0,0.1,0c0,0,0,0,0,0v0.4c0,0,0,0-0.1,0c0,0-0.1,0-0.1,0
	c0,0-0.1,0-0.1,0c-0.1,0-0.2,0-0.2,0c-0.1,0-0.1,0-0.2,0h-0.7c-0.1-0.3-0.2-0.6-0.3-0.9c-0.1-0.3-0.2-0.5-0.2-0.7
	c-0.1-0.2-0.2-0.4-0.3-0.7c-0.1-0.2-0.2-0.5-0.3-0.7c-0.1-0.2-0.2-0.4-0.2-0.6c-0.1-0.2-0.2-0.4-0.3-0.7c-0.2-0.5-0.3-0.9-0.4-1.1
	c-0.1-0.2-0.2-0.5-0.3-0.7c-0.1-0.2-0.2-0.6-0.4-1.1c-0.5-1.2-0.8-2.1-1-2.8c-0.1-0.3-0.2-0.5-0.2-0.6c-0.1-0.2-0.1-0.3-0.2-0.5
	c-0.1-0.2-0.1-0.4-0.2-0.6H77.2z M65.8,33.2v-0.4c0.2,0,0.4,0,0.7,0h0.8c0,0.3,0.1,0.5,0.1,0.8c0,0.2,0,0.4,0,0.6c0,0.2,0,0.4,0,0.6
	c0,0.2,0,0.4,0,0.5c0,0.4,0,1.1,0.1,1.9c0,0.3,0,0.6,0,0.9c0,0.3,0,0.6,0,0.8v1.3V42v1.6v0.8c-0.3,0-0.5,0.1-0.8,0.1
	c-0.3,0.1-0.5,0.1-0.7,0.2v-0.4c0.1,0,0.2-0.1,0.6-0.3c0,0,0.1,0,0.1-0.1c0,0,0.1,0,0.1,0c0,0,0,0,0.1,0c0-0.1,0-0.2,0-0.3
	c0-0.1,0-0.1,0-0.2v-1.6v-1.7c0-0.7,0-1.3,0-1.8c0-0.5,0-1.1,0-1.6c0-0.5-0.1-1.1-0.1-1.8c-0.1-0.7-0.1-1.2-0.2-1.6
	c-0.1,0-0.2-0.1-0.5-0.1c0,0-0.1,0-0.1,0c0,0-0.1,0-0.1,0C65.9,33.2,65.9,33.2,65.8,33.2C65.8,33.2,65.8,33.2,65.8,33.2z M69.5,32.8
	v0.3c-0.1,0-0.1,0-0.2,0c-0.1,0-0.1,0-0.2,0c-0.1,0-0.1,0-0.2,0c-0.1,0-0.2,0-0.3,0c-0.1,1.1-0.1,1.8-0.1,2v1.8c0,0.7,0,1.2,0,1.5
	V40v1.7c0,0.3,0,0.5,0,0.7c0,0.2,0,0.4,0,0.6c0,0.2,0,0.5,0,0.8c0.1,0,0.2,0,0.3,0c0.1,0,0.2,0,0.4,0.1c0.1,0,0.3,0.1,0.4,0.1l0,0.4
	c-0.5-0.1-0.9-0.1-1.2-0.1c-0.2,0-0.3,0-0.4,0c0-0.6,0-1.1,0-1.3v-1.2c0-0.2,0-0.5,0-0.8c0-0.4,0-0.6,0-0.8v-1.5c0-0.3,0-0.7,0-1.3
	c0-0.3,0-0.6,0-0.8c0-0.3,0-0.6,0-1c0-0.2,0-0.4,0-0.7c0-0.3,0-0.6,0-1c0-0.3,0-0.6,0.1-0.9C68.6,32.9,69.1,32.9,69.5,32.8z
	 M53.6,33.2v-0.4c0,0,0.5,0,1.4,0.1c0,0.1,0,0.2,0,0.3c0,0.1,0,0.2,0,0.3c0,0.1,0,0.2,0,0.3c0,0.3,0,0.5,0,0.8c0,0.3,0,0.5,0,0.7
	c0,0.4,0,1,0,1.8v1.3c0,0.2,0,0.4,0,0.7c0,0.3,0,0.6,0,0.7c0,0.2,0,0.5,0,0.8c0,0.4,0,0.6,0,0.8V43c0,0.3,0,0.5,0,0.7
	c0,0.2,0,0.4,0,0.6c-0.1,0-0.2,0-0.4,0c-0.3,0-0.7,0-1.2,0.1l0-0.4c0.3-0.1,0.6-0.1,1.1-0.2V43v-1.3c0-0.4,0-0.9,0-1.7v-1.4v-1.5
	c0-0.8,0-1.4,0-1.8c0-0.2,0-0.4,0-0.7c0-0.3,0-0.5,0-0.6c0-0.2,0-0.3,0-0.4c0-0.1,0-0.2,0-0.2C54.1,33.3,53.8,33.3,53.6,33.2z
	 M60.2,42l-1.7-2.6c0.4-0.1,0.8-0.3,1.1-0.6c0.3-0.3,0.6-0.6,0.8-1c0.2-0.4,0.3-0.8,0.3-1.3c0-0.8-0.2-1.4-0.7-1.9
	c-0.4-0.5-1-0.8-1.5-1c0.4,0,0.7,0.1,1,0.2c0.3,0.1,0.6,0.3,0.9,0.5c0.2,0.2,0.4,0.5,0.6,0.9c0.2,0.3,0.2,0.7,0.2,1.2
	c0,0.5-0.1,0.9-0.3,1.4c-0.2,0.4-0.4,0.8-0.7,1c-0.3,0.3-0.6,0.5-1,0.7l1.9,2.8c0.2,0.3,0.4,0.6,0.8,0.9c0.3,0.3,0.7,0.6,1.1,0.9
	c0.4,0.2,0.9,0.4,1.3,0.4v0.3c-0.6,0-1.1-0.2-1.7-0.5c-0.5-0.3-1-0.7-1.4-1.1C60.8,42.8,60.5,42.4,60.2,42z M57.6,39.9
	c-0.3,0-0.8-0.1-1.4-0.1c0,0.3,0,0.6,0,1c0,0.2,0,0.4,0,0.5c0,0.2,0,0.4,0,0.6v1.6c0,0.1,0,0.1,0,0.2c0,0.1,0,0.1,0,0.1
	c0,0,0,0.1,0,0.1c0,0,0,0,0.1,0c0.1,0,0.1,0.1,0.2,0.1c0.1,0,0.3,0.1,0.6,0.3v0.4c-0.4-0.2-0.9-0.3-1.4-0.4c0-0.2,0-0.5,0-0.8V42
	v-1.7c0-0.3,0-0.6,0-1c0-0.4,0-1,0-1.8c0-0.9,0.1-1.7,0.1-2.6c0-0.9,0.1-1.6,0.1-1.9l0.5,0c0.1,0,0.2,0,0.3,0
	c0.7-0.1,1.1-0.1,1.2-0.1c0.1,0,0.1,0,0.2,0c0,0,0.1,0,0.2,0c0.9,0,1.7,0.2,2.3,0.6c0.6,0.4,1.1,0.9,1.4,1.4
	c0.3,0.6,0.4,1.2,0.4,1.8c0,0.7-0.2,1.4-0.7,2c-0.4,0.6-1,1-1.8,1c0.4-0.2,0.9-0.5,1.3-0.9c0.4-0.5,0.6-1.2,0.6-2.1
	c0-1.3-0.4-2.2-1.1-2.7c-0.8-0.5-1.6-0.7-2.5-0.7c-0.3,0-0.4,0-0.5,0c-0.4,0-0.7,0.1-1,0.2c-0.1,0.6-0.2,1.5-0.2,2.8
	c-0.1,1.2-0.1,2.3-0.1,3.1c0.5,0.1,1.1,0.2,1.7,0.2c0,0.1,0.1,0.2,0.2,0.3c0.1,0.2,0.2,0.3,0.3,0.4c0.1,0.1,0.2,0.3,0.4,0.6
	c0.2,0.3,0.4,0.6,0.5,0.8c0.2,0.3,0.4,0.6,0.6,0.8c0.2,0.2,0.4,0.5,0.6,0.7c0.2,0.2,0.4,0.5,0.7,0.7c0.2,0.2,0.5,0.4,0.8,0.7
	c-0.4-0.1-0.8-0.3-1.1-0.5c-0.3-0.2-0.7-0.5-1-0.9c-0.3-0.4-0.7-0.8-1-1.3C58.5,41.4,58.1,40.7,57.6,39.9z M46.7,37.6h1.1
	c0.4,0,0.9,0,1.5-0.1c0.6,0,1-0.1,1.4-0.1c0,0,0-0.1,0-0.1c0,0,0-0.1,0-0.1c0-0.1,0-0.2,0.1-0.3c0,0,0-0.1,0-0.1c0,0,0-0.1,0-0.1
	c0,0,0-0.1,0-0.1h0.4c0,0.1-0.1,0.3-0.1,0.6c0,0.1,0,0.2,0,0.4c0,0,0,0.1,0,0.1c0,0.1,0,0.1,0,0.1h-2.1c0.9,0.2,1.6,0.3,2.1,0.5
	c0,0.4,0,0.9,0.1,1.3h-0.5c-0.1-0.3-0.1-0.6-0.1-1c-0.4-0.2-0.9-0.4-1.5-0.4c-0.6-0.1-1-0.1-1.4-0.1h-1.1v4.5V43v0.4v0.4H48
	c0.4,0,0.7,0,1,0c0.3,0,0.7-0.1,1.2-0.2c0.5-0.1,1-0.3,1.5-0.5c0-0.1,0-0.2,0-0.3c0-0.1,0-0.3,0-0.3c0-0.2,0-0.4,0.1-0.6h0.3v0.6V43
	v0.4c-0.1,0-0.1,0.1-0.2,0.1c-0.1,0-0.1,0-0.2,0.1c-0.3,0.1-0.5,0.1-0.7,0.2c-0.1,0-0.2,0-0.3,0.1c-0.1,0-0.3,0.1-0.4,0.1
	c-0.1,0-0.4,0.1-0.7,0.1h2.5c0,0.1,0,0.2,0,0.2v0.2v0.2c0,0,0,0.1,0,0.1h-0.4c0,0,0-0.1,0-0.2v-0.1v-0.1h-5.6v-6.1v-0.6V36v-1.4
	v-1.8h2.4H49c0.1,0,0.3,0,0.4,0c0.1,0,0.2,0,0.4,0h0.8c0.1,0,0.2,0,0.4,0c0.2,0,0.3,0,0.4,0h0.3c0,0,0-0.1,0-0.1c0,0,0-0.1,0.1-0.1
	h0.3c0,0.2-0.1,0.4-0.1,0.7l-2.3-0.2c1.1,0.2,1.8,0.4,2.2,0.6c0,0,0,0.1,0,0.1c0,0,0,0.1,0,0.1c0,0.1,0,0.2-0.1,0.4
	c0,0.2,0,0.4-0.1,0.5h-0.4c0-0.1,0-0.2,0-0.4c0-0.1,0-0.3,0-0.3c-0.5-0.3-1.1-0.5-1.6-0.6c-0.6-0.1-1.2-0.1-1.8-0.2h-0.5h-0.4
	c0,0.3,0,0.5,0,0.5c0,0.3,0,0.6-0.1,1.1c0,0.4,0,0.8,0,1c0,0.1,0,0.3,0,0.5c0,0,0,0.1,0,0.2V37.6z M44.1,44.3
	c0.2-0.1,0.4-0.2,0.6-0.3c0.1,0,0.1,0,0.1-0.1c0,0,0.1,0,0.1,0c0,0,0.1,0,0.1,0c0-0.1,0-0.2,0-0.3c0-0.1,0-0.1,0-0.2v-1.6v-1.7
	c0-0.3,0-0.8,0-1.6c0-0.8,0-1.4,0-1.9c0-0.4,0-1-0.1-1.6c0-0.6-0.1-1.2-0.2-1.7c0,0-0.2-0.1-0.5-0.1c0,0-0.1,0-0.1,0
	c0,0-0.1,0-0.1,0c0,0,0,0-0.1,0c0,0-0.1,0-0.1,0v-0.4c0.1,0,0.2,0,0.4,0c0.2,0,0.3,0,0.4,0h0.8c0,0,0,0.4,0.1,1.1
	c0,0.7,0.1,1.6,0.1,2.7c0,1.1,0.1,2.3,0.1,3.6V42v1.6c0,0.2,0,0.3,0,0.4c0,0.1,0,0.2,0,0.4c-0.5,0.1-1,0.2-1.5,0.4V44.3z M32.7,33.2
	v-0.4c0,0,0.1,0,0.3,0c0.2,0,0.3,0,0.5,0h0.8c0.1,0.7,0.1,1.4,0.2,2.2c0,0.8,0.1,1.6,0.1,2.3c0,0.7,0,1.3,0,1.8c0,0.4,0,0.8,0,1V42
	v1.6c0,0.2,0,0.3,0,0.4c0,0.1,0,0.2,0,0.4c-0.5,0.1-1,0.2-1.5,0.4v-0.4c0.2-0.1,0.4-0.2,0.6-0.3c0.1,0,0.1,0,0.1-0.1
	c0,0,0.1,0,0.1,0c0,0,0.1,0,0.1,0c0-0.1,0-0.2,0-0.3c0-0.1,0-0.1,0-0.2v-1.6v-1.7c0-0.8,0-1.6,0-2.4c0-0.8-0.1-1.6-0.1-2.4
	c-0.1-0.8-0.1-1.5-0.2-2c-0.1,0-0.2-0.1-0.5-0.1c0,0-0.1,0-0.1,0c0,0-0.1,0-0.1,0C32.9,33.2,32.9,33.2,32.7,33.2
	C32.8,33.2,32.8,33.2,32.7,33.2z M36.7,44l0,0.4c-0.5-0.1-0.9-0.1-1.2-0.1c-0.2,0-0.3,0-0.4,0c0-0.2,0-0.4,0-0.6c0-0.3,0-0.5,0-0.7
	v-1.2c0-0.3,0-0.5,0-0.8c0-0.2,0-0.5,0-0.9v-1.5v-1.3c0-0.2,0-0.4,0-0.6c0-0.2,0-0.4,0-0.7c0-0.3,0-0.5,0-0.6c0-0.7,0-1.3,0-1.7
	c0-0.2,0-0.6,0.1-1c0.2,0,0.5,0,0.7,0.1c0.2,0,0.5,0,0.9,0c0.6-0.1,1.1-0.1,1.6-0.1c0.6,0,1.2,0.1,1.6,0.3c0.5,0.2,0.9,0.5,1.2,0.8
	c0.3,0.3,0.5,0.7,0.7,1.2c0.1,0.4,0.2,0.9,0.2,1.4c0,0.5-0.1,0.9-0.3,1.2c-0.1,0.2-0.2,0.4-0.4,0.8c-0.1,0.1-0.2,0.2-0.2,0.3
	c-0.1,0.1-0.2,0.2-0.3,0.3c-0.2,0.1-0.3,0.2-0.5,0.3c0.7-0.8,1-1.7,1.1-2.8c0-2-1-3.1-3.1-3.3c-0.4,0-0.8,0-1.2,0
	c-0.4,0-0.8,0.1-1.3,0.2c-0.1,0.4-0.1,1-0.1,1.8v1.8c0,0.2,0,0.4,0,0.8c0,0.3,0,0.6,0,0.8c0,0.1,0,0.1,0,0.2c0,0.1,0,0.1,0,0.2
	c0,0.1,0,0.1,0,0.2c0.7,0.3,1.4,0.4,2.2,0.4c0.5,0,1-0.2,1.4-0.4c0.4-0.3,0.7-0.6,0.8-1.1c0.2-0.4,0.3-0.9,0.3-1.5
	c0-0.8-0.2-1.5-0.5-1.8c-0.3-0.4-0.6-0.7-0.9-0.8c0.4,0,0.8,0.1,1.1,0.4c0.3,0.2,0.5,0.5,0.7,0.9c0.2,0.4,0.2,0.9,0.2,1.4
	c0,0.5-0.1,1.1-0.3,1.6c-0.2,0.5-0.6,0.9-1,1.3c-0.5,0.3-1,0.5-1.7,0.5c-0.3,0-0.6,0-1-0.1c-0.4-0.1-0.8-0.1-1.2-0.2V40v1.7v2.1
	c0.1,0,0.2,0,0.5,0.1C36.4,44,36.6,44,36.7,44z M30.4,32.8l0,0.4c-0.4,0.1-0.7,0.1-0.8,0.1c0,0,0,0.2,0,0.7c0,0.5,0,0.9-0.1,1.3v1.8
	c0,0.1,0,0.3,0,0.5c0,0.2,0,0.4,0,0.6c0,0.1,0,0.3,0,0.5V40c0,0.8,0,1.3,0,1.7V43c0,0.4,0,0.7,0,0.8c0.1,0,0.2,0,0.4,0.1
	c0.2,0,0.4,0.1,0.6,0.2l0,0.4c-0.5-0.1-0.9-0.1-1.2-0.1c-0.2,0-0.3,0-0.4,0c0-0.3,0-0.5,0-0.7c0-0.1,0-0.4,0-0.7v-1.2
	c0-0.4,0-0.7,0-0.9c0-0.2,0-0.5,0-0.8v-1.5c0-0.3,0-0.5,0-0.7c0-0.2,0-0.4,0-0.6c0-0.3,0-0.6,0-0.8c0-0.3,0-0.6,0-1
	c0-0.4,0-0.7,0-0.9c0-0.2,0-0.5,0-0.8c0-0.4,0.1-0.7,0.1-1c0.3,0,0.6,0,0.9-0.1C30.1,32.8,30.3,32.8,30.4,32.8z M24.2,43l-3.3-8
	c-0.1-0.1-0.1-0.3-0.2-0.5c-0.1-0.3-0.2-0.5-0.2-0.7c-0.1-0.2-0.1-0.4-0.2-0.6c0-0.1-0.1-0.3-0.1-0.4c0.1,0,0.1,0,0.2,0
	c0,0,0.1,0,0.2,0c0.3,0,0.4,0,0.6,0c0.1,0,0.1,0,0.2,0c0.1,0,0.1,0,0.2,0c0,0,0.1,0,0.2,0h0.2l0,0.3c-0.1,0-0.1,0-0.2,0
	c-0.1,0-0.1,0-0.1,0c0,0-0.1,0-0.1,0c-0.1,0-0.2,0.1-0.2,0.1c0,0-0.1,0.1-0.1,0.2c0,0.1,0,0.3,0.1,0.5c0.1,0.3,0.2,0.5,0.2,0.6
	c0.1,0.2,0.1,0.3,0.1,0.4c0,0.1,0,0.1,0.1,0.2c0,0.1,0,0.1,0.1,0.2l2.6,6.5l3.3-8c0,0,0-0.1,0-0.2c0-0.1,0-0.2,0-0.2
	c-0.1,0-0.2-0.1-0.4-0.1c0,0-0.1,0-0.1,0c0,0-0.1,0-0.1,0c0,0,0,0-0.1,0c0,0,0,0-0.1,0v-0.4c0.2,0,0.5,0,0.7,0h0.8
	c0.1,0.7,0.1,1.4,0.1,2.2c0,0.8,0.1,1.4,0.1,1.9c0,0.5,0,1.1,0,1.8c0,0.7,0,1.2,0,1.5V42v1.6v0.8c-0.6,0.1-1,0.2-1.5,0.4v-0.4
	c0.1,0,0.3-0.1,0.5-0.3c0.1-0.1,0.2-0.1,0.2-0.1c0,0,0.1,0,0.1,0c0-0.1,0-0.2,0-0.2c0-0.1,0-0.2,0-0.3c0-0.4,0-0.9,0-1.6v-1.7
	c0-1.8-0.1-2.7-0.1-2.9c0-0.3,0-0.7-0.1-1.1c0-0.4,0-0.7-0.1-0.9c0-0.2,0-0.3,0-0.4L24.2,43z M24,43.7l-0.3,0.6l-4-9.6l-0.1,5.7
	c0,0.4,0,0.9,0.1,1.3c0,0.1,0,0.3,0,0.4c0,0.2,0,0.4,0.1,0.6c0,0.2,0,0.3,0.1,0.4c0,0.1,0,0.2,0,0.3c0,0.1,0,0.3,0.1,0.4
	c0.1,0,0.2,0,0.3,0c0,0,0.1,0,0.1,0c0,0,0.1,0,0.1,0c0,0,0.1,0,0.1,0c0.2,0,0.3,0,0.4,0.1l0,0.4c-0.1,0-0.2,0-0.3,0
	c-0.2,0-0.3,0-0.4,0c-0.1,0-0.3,0-0.6,0l-0.3-2.6l-0.4,2.6c-0.1,0-0.1,0-0.2,0c0,0-0.1,0-0.2,0c0,0-0.1,0-0.2,0
	c-0.1,0-0.2,0-0.2,0.1c-0.1,0.1-0.3,0.1-0.4,0.2c0,0-0.1,0-0.1,0c0,0-0.1,0-0.1,0l0-0.4c0,0,0.1,0,0.1,0c0,0,0.1,0,0.1,0
	c0.1,0,0.2-0.1,0.3-0.1c0.1,0,0.1-0.1,0.2-0.1c0.1,0,0.1,0,0.1-0.1c0,0,0.1,0,0.2-0.1c0-0.1,0-0.1,0-0.1c0,0,0-0.1,0-0.1
	c0.1-0.3,0.1-0.6,0.1-0.7c0-0.2,0-0.3,0-0.4c0-0.1,0-0.2,0.1-0.4c0.2-1,0.2-1.7,0.3-2.2l0.3-6.2c-0.1-0.3-0.4-0.5-0.7-0.6
	c-0.1,0-0.3-0.1-0.5-0.1c-0.1,0-0.1,0-0.2,0l0-0.4c0.1,0,0.1,0,0.2,0c0,0,0.1,0,0.1,0c0.1,0,0.2,0,0.3,0c0.1,0,0.1,0,0.2,0
	c0.3,0,0.5,0,0.8,0L24,43.7z M11.7,33.2v-0.4c0.2,0,0.4,0,0.7,0h0.8c0,0.3,0.1,0.5,0.1,0.8c0,0.2,0,0.4,0,0.6c0,0.2,0,0.4,0,0.6
	c0,0.2,0,0.4,0,0.5c0,0.4,0,1.1,0.1,1.9c0,0.3,0,0.6,0,0.9c0,0.3,0,0.6,0,0.8v1.3V42v1.6v0.8c-0.3,0-0.5,0.1-0.8,0.1
	c-0.3,0.1-0.5,0.1-0.7,0.2v-0.4c0.1,0,0.2-0.1,0.6-0.3c0,0,0.1,0,0.1-0.1c0,0,0.1,0,0.1,0c0,0,0,0,0.1,0c0-0.1,0-0.2,0-0.3
	c0-0.1,0-0.1,0-0.2v-1.6v-1.7c0-0.7,0-1.3,0-1.8c0-0.5,0-1.1,0-1.6c0-0.5-0.1-1.1-0.1-1.8c-0.1-0.7-0.1-1.2-0.2-1.6
	c-0.1,0-0.2-0.1-0.5-0.1c0,0-0.1,0-0.1,0c0,0-0.1,0-0.1,0C11.8,33.2,11.8,33.2,11.7,33.2C11.7,33.2,11.7,33.2,11.7,33.2z M15.4,32.8
	v0.3c-0.1,0-0.1,0-0.2,0c-0.1,0-0.1,0-0.2,0c-0.1,0-0.1,0-0.2,0c-0.1,0-0.2,0-0.3,0c-0.1,1.1-0.1,1.8-0.1,2v1.8c0,0.7,0,1.2,0,1.5
	V40v1.7c0,0.3,0,0.5,0,0.7c0,0.2,0,0.4,0,0.6c0,0.2,0,0.5,0,0.8c0.1,0,0.2,0,0.3,0c0.1,0,0.2,0,0.4,0.1c0.1,0,0.3,0.1,0.4,0.1l0,0.4
	c-0.5-0.1-0.9-0.1-1.2-0.1c-0.2,0-0.3,0-0.4,0c0-0.6,0-1.1,0-1.3v-1.2c0-0.2,0-0.5,0-0.8c0-0.4,0-0.6,0-0.8v-1.5c0-0.3,0-0.7,0-1.3
	c0-0.3,0-0.6,0-0.8c0-0.3,0-0.6,0-1c0-0.2,0-0.4,0-0.7c0-0.3,0-0.6,0-1c0-0.3,0-0.6,0.1-0.9C14.5,32.9,15,32.9,15.4,32.8z
	 M153.2,24.1v-4h1.7c0.3,0,0.6,0,0.8,0.1c0.2,0.1,0.3,0.2,0.4,0.4c0.1,0.2,0.2,0.4,0.2,0.6c0,0.3-0.1,0.5-0.3,0.7
	c-0.2,0.2-0.4,0.3-0.8,0.4c0.1,0.1,0.2,0.1,0.3,0.2c0.1,0.1,0.3,0.3,0.4,0.5l0.7,1.1h-0.6l-0.5-0.8c-0.1-0.2-0.3-0.4-0.4-0.5
	c-0.1-0.1-0.2-0.2-0.3-0.3c-0.1-0.1-0.2-0.1-0.2-0.1c-0.1,0-0.2,0-0.3,0h-0.6v1.8H153.2z"/>
<path fill-rule="evenodd" fill="#A7955D" d="M118,58.9c0.2,0.1,0.4,0.1,0.6,0.1c0.4,0,0.7-0.1,0.9-0.3c0.2-0.2,0.3-0.4,0.3-0.7
	c0-0.3-0.1-0.6-0.4-0.7c-0.3-0.2-0.6-0.3-1-0.3c-0.1,0-0.2,0-0.4,0V58.9z M118,56.6c0.1,0,0.2,0,0.3,0c0.5,0,0.8-0.1,1-0.3
	c0.2-0.2,0.3-0.4,0.3-0.7c0-0.3-0.1-0.5-0.3-0.7c-0.2-0.1-0.5-0.2-1-0.2H118V56.6z M119.5,56.7c0.8,0.2,1.3,0.6,1.3,1.2
	c0,0.4-0.2,0.8-0.5,1c-0.3,0.2-0.8,0.3-1.5,0.3h-2.3v-0.2c0.3,0,0.5-0.1,0.6-0.2c0.1-0.1,0.1-0.4,0.1-0.8v-2.6c0-0.4,0-0.6-0.1-0.7
	c0-0.1-0.1-0.1-0.2-0.2c-0.1-0.1-0.2-0.1-0.5-0.1v-0.2h2.1c0.4,0,0.7,0,1,0.1c0.3,0.1,0.5,0.2,0.6,0.4c0.2,0.2,0.2,0.4,0.2,0.7
	C120.5,56.2,120.2,56.6,119.5,56.7z M113.6,54.7c-0.2,0-0.4,0.1-0.5,0.2c-0.2,0.1-0.3,0.3-0.4,0.6c-0.1,0.3-0.2,0.6-0.2,1.1
	c0,0.7,0.1,1.3,0.4,1.8c0.3,0.5,0.6,0.8,1.1,0.8c0.3,0,0.6-0.1,0.8-0.4c0.2-0.3,0.3-0.8,0.3-1.4c0-0.9-0.2-1.5-0.5-2
	C114.2,54.8,113.9,54.7,113.6,54.7z M113.7,54.3c0.7,0,1.3,0.3,1.7,0.8c0.4,0.5,0.5,1,0.5,1.6c0,0.4-0.1,0.9-0.3,1.3
	c-0.2,0.4-0.5,0.8-0.8,1c-0.3,0.2-0.7,0.3-1.2,0.3c-0.7,0-1.2-0.3-1.7-0.9c-0.3-0.5-0.5-1-0.5-1.6c0-0.4,0.1-0.9,0.3-1.3
	c0.2-0.4,0.5-0.8,0.8-1C113,54.4,113.3,54.3,113.7,54.3z M111.6,59.3h-1.4c-0.4-0.6-0.8-1.3-1.1-2c-0.1-0.2-0.2-0.3-0.2-0.3
	c-0.1-0.1-0.2-0.1-0.3-0.1c0,0-0.1,0-0.2,0v1.3c0,0.3,0,0.6,0.1,0.7c0,0.1,0.1,0.2,0.2,0.2c0.1,0,0.3,0.1,0.5,0.1v0.2h-2.3v-0.2
	c0.3,0,0.5-0.1,0.6-0.2c0.1-0.1,0.1-0.4,0.1-0.8v-2.6c0-0.4,0-0.6-0.1-0.7c0-0.1-0.1-0.1-0.2-0.2c-0.1-0.1-0.2-0.1-0.5-0.1v-0.2h2.3
	v0.2c-0.3,0-0.4,0-0.5,0.1c-0.1,0-0.1,0.1-0.2,0.2c-0.1,0.1-0.1,0.3-0.1,0.7v0.9c0.1,0,0.1,0,0.2,0c0.2,0,0.4-0.1,0.6-0.2
	c0.2-0.1,0.3-0.4,0.5-0.8c0.1-0.4,0.2-0.6,0.3-0.7c0.1-0.1,0.2-0.2,0.4-0.3c0.2-0.1,0.3-0.1,0.5-0.1c0.2,0,0.3,0,0.4,0.1
	c0.1,0.1,0.2,0.2,0.2,0.4c0,0.1,0,0.2-0.1,0.3c-0.1,0.1-0.2,0.1-0.3,0.1c-0.1,0-0.2,0-0.3-0.1c-0.1-0.1-0.2-0.1-0.3-0.1
	c-0.2,0-0.3,0.1-0.4,0.4c-0.1,0.3-0.2,0.5-0.3,0.6c-0.1,0.1-0.2,0.2-0.3,0.4c0.1,0,0.2,0.1,0.3,0.2c0.1,0.1,0.3,0.5,0.7,1.1
	c0.3,0.5,0.5,0.8,0.6,0.9c0.1,0.1,0.3,0.2,0.6,0.2V59.3z M99.1,54.5h2.1v0.2c-0.1,0-0.2,0-0.3,0.1c-0.1,0.1-0.1,0.1-0.1,0.2
	c0,0.1,0.1,0.2,0.2,0.4c0,0.1,0.1,0.1,0.2,0.3l0.3,0.5l0.4-0.5c0.2-0.3,0.4-0.6,0.4-0.7c0-0.1,0-0.1-0.1-0.2
	c-0.1-0.1-0.1-0.1-0.3-0.1v-0.2h1.5v0.2c-0.2,0-0.3,0.1-0.4,0.1c-0.2,0.1-0.4,0.4-0.7,0.8l-0.6,0.9l1.1,1.7c0.3,0.4,0.5,0.7,0.6,0.8
	c0.1,0.1,0.3,0.1,0.5,0.1v0.2h-2.2v-0.2c0.2,0,0.3,0,0.4-0.1c0.1-0.1,0.1-0.1,0.1-0.2c0-0.1-0.1-0.3-0.3-0.6l-0.7-1l-0.7,1
	c-0.2,0.3-0.3,0.5-0.3,0.6c0,0.1,0,0.2,0.1,0.2c0.1,0.1,0.2,0.1,0.3,0.1v0.2h-1.5v-0.2c0.1,0,0.2-0.1,0.3-0.1
	c0.1-0.1,0.3-0.4,0.6-0.8l1-1.3l-0.9-1.3c-0.2-0.4-0.4-0.6-0.6-0.7c-0.1-0.1-0.3-0.1-0.5-0.1V54.5z M95.2,57.8l2-2.4
	c0-0.3-0.1-0.5-0.1-0.6c-0.1-0.1-0.2-0.2-0.5-0.2v-0.2h2.1v0.2c-0.2,0-0.4,0-0.5,0.1c-0.1,0-0.1,0.1-0.2,0.2c0,0.1-0.1,0.3-0.1,0.7
	v2.6c0,0.4,0,0.6,0.1,0.7c0,0.1,0.1,0.1,0.2,0.2c0.1,0.1,0.2,0.1,0.5,0.1v0.2h-2.2v-0.2c0.3,0,0.5-0.1,0.6-0.2
	c0.1-0.1,0.1-0.4,0.1-0.8v-2.3l-2,2.4c0,0.3,0,0.5,0.1,0.6c0.1,0.1,0.2,0.2,0.5,0.2v0.2h-2.1v-0.2c0.3,0,0.5-0.1,0.6-0.2
	c0.1-0.1,0.1-0.4,0.1-0.8v-2.6c0-0.4,0-0.6-0.1-0.7c0-0.1-0.1-0.1-0.2-0.2c-0.1-0.1-0.2-0.1-0.5-0.1v-0.2h2.2v0.2
	c-0.2,0-0.4,0-0.5,0.1c-0.1,0-0.1,0.1-0.2,0.2c0,0.1-0.1,0.3-0.1,0.7V57.8z M93.4,59.3h-1.4c-0.4-0.6-0.8-1.3-1.1-2
	c-0.1-0.2-0.2-0.3-0.2-0.3c-0.1-0.1-0.2-0.1-0.3-0.1c0,0-0.1,0-0.2,0v1.3c0,0.3,0,0.6,0.1,0.7c0,0.1,0.1,0.2,0.2,0.2
	c0.1,0,0.3,0.1,0.5,0.1v0.2h-2.3v-0.2c0.3,0,0.5-0.1,0.6-0.2c0.1-0.1,0.1-0.4,0.1-0.8v-2.6c0-0.4,0-0.6-0.1-0.7
	c0-0.1-0.1-0.1-0.2-0.2c-0.1-0.1-0.2-0.1-0.5-0.1v-0.2H91v0.2c-0.3,0-0.4,0-0.5,0.1c-0.1,0-0.1,0.1-0.2,0.2
	c-0.1,0.1-0.1,0.3-0.1,0.7v0.9c0.1,0,0.1,0,0.2,0c0.2,0,0.4-0.1,0.6-0.2c0.2-0.1,0.3-0.4,0.5-0.8c0.1-0.4,0.2-0.6,0.3-0.7
	c0.1-0.1,0.2-0.2,0.4-0.3c0.2-0.1,0.3-0.1,0.5-0.1c0.2,0,0.3,0,0.4,0.1c0.1,0.1,0.2,0.2,0.2,0.4c0,0.1,0,0.2-0.1,0.3
	c-0.1,0.1-0.2,0.1-0.3,0.1c-0.1,0-0.2,0-0.3-0.1c-0.1-0.1-0.2-0.1-0.3-0.1c-0.2,0-0.3,0.1-0.4,0.4c-0.1,0.3-0.2,0.5-0.3,0.6
	c-0.1,0.1-0.2,0.2-0.3,0.4c0.1,0,0.2,0.1,0.3,0.2c0.1,0.1,0.3,0.5,0.7,1.1c0.3,0.5,0.5,0.8,0.6,0.9c0.1,0.1,0.3,0.2,0.6,0.2V59.3z
	 M88.2,57.5c-0.1,0.6-0.4,1.1-0.7,1.5c-0.4,0.3-0.8,0.5-1.2,0.5c-0.5,0-1-0.2-1.4-0.7c-0.4-0.5-0.6-1.1-0.6-1.9
	c0-0.8,0.2-1.4,0.6-1.8c0.4-0.5,0.9-0.7,1.5-0.7c0.5,0,0.8,0.1,1.1,0.4c0.3,0.2,0.4,0.5,0.4,0.8c0,0.1,0,0.2-0.1,0.3
	c-0.1,0.1-0.2,0.1-0.3,0.1c-0.2,0-0.3-0.1-0.4-0.2c-0.1-0.1-0.1-0.2-0.1-0.4c0-0.2-0.1-0.4-0.2-0.5c-0.1-0.1-0.3-0.2-0.5-0.2
	c-0.3,0-0.6,0.1-0.8,0.4c-0.3,0.3-0.4,0.8-0.4,1.4c0,0.6,0.1,1.1,0.4,1.5c0.3,0.4,0.6,0.7,1.1,0.7c0.3,0,0.6-0.1,0.9-0.3
	c0.2-0.2,0.4-0.5,0.5-0.9L88.2,57.5z M80.4,55.8v1.8c0,0.4,0,0.6,0,0.8c0,0.2,0.2,0.4,0.3,0.5c0.2,0.2,0.4,0.2,0.7,0.2
	c0.3,0,0.6-0.1,0.8-0.4c0.3-0.4,0.4-0.9,0.4-1.5c0-0.7-0.2-1.3-0.5-1.7c-0.2-0.3-0.5-0.4-0.8-0.4c-0.2,0-0.3,0-0.5,0.1
	C80.9,55.3,80.7,55.5,80.4,55.8z M78.8,54.9l1.4-0.6h0.2v1.1c0.2-0.4,0.5-0.7,0.7-0.9c0.2-0.2,0.5-0.3,0.8-0.3
	c0.5,0,0.8,0.2,1.2,0.6c0.4,0.5,0.6,1.1,0.6,1.8c0,0.8-0.2,1.5-0.7,2.1c-0.4,0.4-0.8,0.7-1.4,0.7c-0.2,0-0.5,0-0.6-0.1
	c-0.1-0.1-0.3-0.2-0.5-0.3v1.5c0,0.3,0,0.5,0.1,0.6c0,0.1,0.1,0.2,0.2,0.2c0.1,0.1,0.3,0.1,0.5,0.1v0.2h-2.4v-0.2h0.1
	c0.2,0,0.3,0,0.5-0.1c0.1,0,0.1-0.1,0.1-0.2c0-0.1,0.1-0.3,0.1-0.6v-4.6c0-0.3,0-0.5,0-0.6c0-0.1-0.1-0.1-0.1-0.2
	c-0.1,0-0.1-0.1-0.2-0.1c-0.1,0-0.2,0-0.3,0.1L78.8,54.9z M76.1,54.7c-0.2,0-0.4,0.1-0.5,0.2c-0.2,0.1-0.3,0.3-0.4,0.6
	C75,55.7,75,56.1,75,56.5c0,0.7,0.1,1.3,0.4,1.8c0.3,0.5,0.6,0.8,1.1,0.8c0.3,0,0.6-0.1,0.8-0.4c0.2-0.3,0.3-0.8,0.3-1.4
	c0-0.9-0.2-1.5-0.5-2C76.8,54.8,76.5,54.7,76.1,54.7z M76.3,54.3c0.7,0,1.3,0.3,1.7,0.8c0.4,0.5,0.5,1,0.5,1.6
	c0,0.4-0.1,0.9-0.3,1.3c-0.2,0.4-0.5,0.8-0.8,1c-0.3,0.2-0.7,0.3-1.2,0.3c-0.7,0-1.2-0.3-1.7-0.9c-0.3-0.5-0.5-1-0.5-1.6
	c0-0.4,0.1-0.9,0.3-1.3c0.2-0.4,0.5-0.8,0.8-1C75.5,54.4,75.9,54.3,76.3,54.3z M69.6,54.5h4l0.2,1.3h-0.2c0-0.3-0.1-0.5-0.2-0.6
	c-0.1-0.1-0.2-0.2-0.3-0.3c-0.1,0-0.3-0.1-0.6-0.1H72v3.3c0,0.4,0,0.6,0.1,0.7c0,0.1,0.1,0.2,0.2,0.2c0.1,0,0.3,0.1,0.6,0.1v0.2
	h-2.5v-0.2c0.3,0,0.5-0.1,0.6-0.2c0.1-0.1,0.1-0.4,0.1-0.8v-3.3h-0.4c-0.3,0-0.5,0-0.6,0.1c-0.1,0-0.2,0.1-0.3,0.3
	c-0.1,0.1-0.2,0.4-0.2,0.6h-0.2L69.6,54.5z M66.5,58.9c0.2,0.1,0.4,0.1,0.6,0.1c0.4,0,0.7-0.1,0.9-0.3c0.2-0.2,0.3-0.4,0.3-0.7
	c0-0.3-0.1-0.6-0.4-0.7c-0.3-0.2-0.6-0.3-1-0.3c-0.1,0-0.2,0-0.4,0V58.9z M66.5,56.6c0.1,0,0.2,0,0.3,0c0.5,0,0.8-0.1,1-0.3
	c0.2-0.2,0.3-0.4,0.3-0.7c0-0.3-0.1-0.5-0.3-0.7c-0.2-0.1-0.5-0.2-1-0.2h-0.3V56.6z M68,56.7c0.8,0.2,1.3,0.6,1.3,1.2
	c0,0.4-0.2,0.8-0.5,1c-0.3,0.2-0.8,0.3-1.5,0.3H65v-0.2c0.3,0,0.5-0.1,0.6-0.2c0.1-0.1,0.1-0.4,0.1-0.8v-2.6c0-0.4,0-0.6-0.1-0.7
	c0-0.1-0.1-0.1-0.2-0.2c-0.1-0.1-0.2-0.1-0.5-0.1v-0.2h2.1c0.4,0,0.7,0,1,0.1c0.3,0.1,0.5,0.2,0.6,0.4c0.2,0.2,0.2,0.4,0.2,0.7
	C69,56.2,68.6,56.6,68,56.7z M63.1,58.2v-1.8c-0.5,0.2-0.8,0.4-1,0.4c-0.3,0.2-0.5,0.3-0.6,0.5c-0.1,0.2-0.2,0.4-0.2,0.5
	c0,0.3,0.1,0.5,0.2,0.6c0.1,0.2,0.3,0.2,0.5,0.2C62.3,58.8,62.7,58.6,63.1,58.2z M63.1,58.6c-0.5,0.4-0.8,0.6-0.9,0.7
	c-0.2,0.1-0.4,0.1-0.6,0.1c-0.3,0-0.6-0.1-0.8-0.3c-0.2-0.2-0.3-0.5-0.3-0.9c0-0.2,0-0.4,0.2-0.6c0.1-0.2,0.4-0.5,0.7-0.7
	c0.3-0.2,0.9-0.5,1.7-0.8v-0.2c0-0.5-0.1-0.8-0.2-1c-0.1-0.2-0.4-0.3-0.6-0.3c-0.2,0-0.4,0.1-0.5,0.2c-0.1,0.1-0.2,0.3-0.2,0.4
	l0,0.3c0,0.2,0,0.3-0.1,0.4c-0.1,0.1-0.2,0.1-0.3,0.1c-0.1,0-0.2,0-0.3-0.1c-0.1-0.1-0.1-0.2-0.1-0.4c0-0.3,0.1-0.6,0.4-0.8
	c0.3-0.3,0.7-0.4,1.2-0.4c0.4,0,0.7,0.1,1,0.2c0.2,0.1,0.3,0.3,0.4,0.5c0.1,0.1,0.1,0.5,0.1,0.9v1.6c0,0.5,0,0.7,0,0.8
	c0,0.1,0,0.2,0.1,0.2c0,0,0.1,0.1,0.1,0.1c0.1,0,0.1,0,0.1,0c0.1,0,0.2-0.2,0.4-0.4v0.3c-0.4,0.5-0.7,0.8-1.1,0.8
	c-0.2,0-0.3-0.1-0.4-0.2C63.1,59.1,63.1,58.9,63.1,58.6z M56,58.2v-1.8c-0.5,0.2-0.8,0.4-1,0.4c-0.3,0.2-0.5,0.3-0.6,0.5
	c-0.1,0.2-0.2,0.4-0.2,0.5c0,0.3,0.1,0.5,0.2,0.6c0.1,0.2,0.3,0.2,0.5,0.2C55.2,58.8,55.6,58.6,56,58.2z M56,58.6
	c-0.5,0.4-0.8,0.6-0.9,0.7c-0.2,0.1-0.4,0.1-0.6,0.1c-0.3,0-0.6-0.1-0.8-0.3c-0.2-0.2-0.3-0.5-0.3-0.9c0-0.2,0-0.4,0.2-0.6
	c0.1-0.2,0.4-0.5,0.7-0.7c0.3-0.2,0.9-0.5,1.7-0.8v-0.2c0-0.5-0.1-0.8-0.2-1c-0.1-0.2-0.4-0.3-0.6-0.3c-0.2,0-0.4,0.1-0.5,0.2
	c-0.1,0.1-0.2,0.3-0.2,0.4l0,0.3c0,0.2,0,0.3-0.1,0.4c-0.1,0.1-0.2,0.1-0.3,0.1c-0.1,0-0.2,0-0.3-0.1c-0.1-0.1-0.1-0.2-0.1-0.4
	c0-0.3,0.1-0.6,0.4-0.8c0.3-0.3,0.7-0.4,1.2-0.4c0.4,0,0.7,0.1,1,0.2c0.2,0.1,0.3,0.3,0.4,0.5c0.1,0.1,0.1,0.5,0.1,0.9v1.6
	c0,0.5,0,0.7,0,0.8c0,0.1,0,0.2,0.1,0.2c0,0,0.1,0.1,0.1,0.1c0.1,0,0.1,0,0.1,0c0.1,0,0.2-0.2,0.4-0.4v0.3c-0.4,0.5-0.7,0.8-1.1,0.8
	c-0.2,0-0.3-0.1-0.4-0.2C56,59.1,56,58.9,56,58.6z M53.1,59.3h-1.4c-0.4-0.6-0.8-1.3-1.1-2c-0.1-0.2-0.2-0.3-0.2-0.3
	c-0.1-0.1-0.2-0.1-0.3-0.1c0,0-0.1,0-0.2,0v1.3c0,0.3,0,0.6,0.1,0.7c0,0.1,0.1,0.2,0.2,0.2c0.1,0,0.3,0.1,0.5,0.1v0.2h-2.3v-0.2
	c0.3,0,0.5-0.1,0.6-0.2c0.1-0.1,0.1-0.4,0.1-0.8v-2.6c0-0.4,0-0.6-0.1-0.7c0-0.1-0.1-0.1-0.2-0.2c-0.1-0.1-0.2-0.1-0.5-0.1v-0.2h2.3
	v0.2c-0.3,0-0.4,0-0.5,0.1c-0.1,0-0.1,0.1-0.2,0.2C50,55,50,55.2,50,55.6v0.9c0.1,0,0.1,0,0.2,0c0.2,0,0.4-0.1,0.6-0.2
	c0.2-0.1,0.3-0.4,0.5-0.8c0.1-0.4,0.2-0.6,0.3-0.7c0.1-0.1,0.2-0.2,0.4-0.3c0.2-0.1,0.3-0.1,0.5-0.1c0.2,0,0.3,0,0.4,0.1
	c0.1,0.1,0.2,0.2,0.2,0.4c0,0.1,0,0.2-0.1,0.3c-0.1,0.1-0.2,0.1-0.3,0.1c-0.1,0-0.2,0-0.3-0.1c-0.1-0.1-0.2-0.1-0.3-0.1
	c-0.2,0-0.3,0.1-0.4,0.4c-0.1,0.3-0.2,0.5-0.2,0.6c-0.1,0.1-0.2,0.2-0.3,0.4c0.1,0,0.2,0.1,0.3,0.2c0.1,0.1,0.3,0.5,0.7,1.1
	c0.3,0.5,0.5,0.8,0.6,0.9c0.1,0.1,0.3,0.2,0.6,0.2V59.3z M44.5,57.8l2-2.4c0-0.3-0.1-0.5-0.1-0.6c-0.1-0.1-0.2-0.2-0.5-0.2v-0.2H48
	v0.2c-0.2,0-0.4,0-0.5,0.1c-0.1,0-0.1,0.1-0.2,0.2c0,0.1-0.1,0.3-0.1,0.7v2.6c0,0.4,0,0.6,0.1,0.7c0,0.1,0.1,0.1,0.2,0.2
	c0.1,0.1,0.2,0.1,0.5,0.1v0.2h-2.2v-0.2c0.3,0,0.5-0.1,0.6-0.2c0.1-0.1,0.1-0.4,0.1-0.8v-2.3l-2,2.4c0,0.3,0,0.5,0.1,0.6
	c0.1,0.1,0.2,0.2,0.5,0.2v0.2H43v-0.2c0.3,0,0.5-0.1,0.6-0.2c0.1-0.1,0.1-0.4,0.1-0.8v-2.6c0-0.4,0-0.6-0.1-0.7
	c0-0.1-0.1-0.1-0.2-0.2c-0.1-0.1-0.2-0.1-0.5-0.1v-0.2h2.2v0.2c-0.2,0-0.4,0-0.5,0.1c-0.1,0-0.1,0.1-0.2,0.2c0,0.1-0.1,0.3-0.1,0.7
	V57.8z M39.2,55.8v1.8c0,0.4,0,0.6,0,0.8c0,0.2,0.2,0.4,0.3,0.5c0.2,0.2,0.4,0.2,0.7,0.2c0.3,0,0.6-0.1,0.8-0.4
	c0.3-0.4,0.4-0.9,0.4-1.5c0-0.7-0.2-1.3-0.5-1.7c-0.2-0.3-0.5-0.4-0.8-0.4c-0.2,0-0.3,0-0.5,0.1C39.7,55.3,39.5,55.5,39.2,55.8z
	 M37.6,54.9l1.4-0.6h0.2v1.1c0.2-0.4,0.5-0.7,0.7-0.9c0.2-0.2,0.5-0.3,0.8-0.3c0.5,0,0.8,0.2,1.2,0.6c0.4,0.5,0.6,1.1,0.6,1.8
	c0,0.8-0.2,1.5-0.7,2.1c-0.4,0.4-0.8,0.7-1.4,0.7c-0.2,0-0.5,0-0.6-0.1c-0.1-0.1-0.3-0.2-0.5-0.3v1.5c0,0.3,0,0.5,0.1,0.6
	c0,0.1,0.1,0.2,0.2,0.2c0.1,0.1,0.3,0.1,0.5,0.1v0.2h-2.4v-0.2h0.1c0.2,0,0.3,0,0.5-0.1c0.1,0,0.1-0.1,0.1-0.2
	c0-0.1,0.1-0.3,0.1-0.6v-4.6c0-0.3,0-0.5,0-0.6c0-0.1-0.1-0.1-0.1-0.2c-0.1,0-0.1-0.1-0.2-0.1c-0.1,0-0.2,0-0.3,0.1L37.6,54.9z
	 M34.9,54.7c-0.3,0-0.6,0.1-0.8,0.4c-0.2,0.3-0.3,0.7-0.3,1.4c0,0.8,0.1,1.5,0.4,1.9c0.3,0.4,0.6,0.7,1,0.7c0.3,0,0.6-0.2,0.8-0.5
	c0.2-0.3,0.3-0.8,0.3-1.5c0-0.7-0.1-1.3-0.4-1.8C35.7,54.9,35.3,54.7,34.9,54.7z M33.1,55.9c0.4-1,1-1.5,1.9-1.5
	c0.6,0,1.2,0.3,1.6,0.8c0.4,0.5,0.6,1.1,0.6,1.7c0,0.7-0.2,1.3-0.6,1.8c-0.4,0.5-1,0.8-1.7,0.8c-0.7,0-1.3-0.3-1.6-0.9
	c-0.4-0.6-0.6-1.4-0.6-2.3c0-0.7,0.1-1.3,0.3-1.9c0.2-0.6,0.4-1,0.6-1.3c0.2-0.3,0.5-0.5,0.7-0.6c0.3-0.1,0.8-0.2,1.5-0.2
	c0.5,0,0.8,0,0.9,0c0.1,0,0.2-0.1,0.3-0.2h0.2c-0.1,0.3-0.2,0.6-0.4,0.7c-0.2,0.1-0.3,0.2-0.5,0.3c-0.2,0.1-0.5,0.1-1,0.1
	c-0.5,0-0.8,0.1-1,0.1c-0.2,0.1-0.4,0.2-0.6,0.5c-0.2,0.2-0.4,0.6-0.5,1C33.2,54.9,33.1,55.4,33.1,55.9z M30.7,58.2v-1.8
	c-0.5,0.2-0.8,0.4-1,0.4c-0.3,0.2-0.5,0.3-0.6,0.5c-0.1,0.2-0.2,0.4-0.2,0.5c0,0.3,0.1,0.5,0.2,0.6c0.1,0.2,0.3,0.2,0.5,0.2
	C30,58.8,30.3,58.6,30.7,58.2z M30.7,58.6c-0.5,0.4-0.8,0.6-0.9,0.7c-0.2,0.1-0.4,0.1-0.6,0.1c-0.3,0-0.6-0.1-0.8-0.3
	c-0.2-0.2-0.3-0.5-0.3-0.9c0-0.2,0-0.4,0.2-0.6c0.1-0.2,0.4-0.5,0.7-0.7c0.3-0.2,0.9-0.5,1.7-0.8v-0.2c0-0.5-0.1-0.8-0.2-1
	c-0.1-0.2-0.4-0.3-0.6-0.3c-0.2,0-0.4,0.1-0.5,0.2c-0.1,0.1-0.2,0.3-0.2,0.4l0,0.3c0,0.2,0,0.3-0.1,0.4c-0.1,0.1-0.2,0.1-0.3,0.1
	c-0.1,0-0.2,0-0.3-0.1c-0.1-0.1-0.1-0.2-0.1-0.4c0-0.3,0.1-0.6,0.4-0.8c0.3-0.3,0.7-0.4,1.2-0.4c0.4,0,0.7,0.1,1,0.2
	c0.2,0.1,0.3,0.3,0.4,0.5c0.1,0.1,0.1,0.5,0.1,0.9v1.6c0,0.5,0,0.7,0,0.8c0,0.1,0,0.2,0.1,0.2c0,0,0.1,0.1,0.1,0.1
	c0.1,0,0.1,0,0.1,0c0.1,0,0.2-0.2,0.4-0.4v0.3c-0.4,0.5-0.7,0.8-1.1,0.8c-0.2,0-0.3-0.1-0.4-0.2C30.8,59.1,30.7,58.9,30.7,58.6z
	 M24.9,58.5c0.1,0.2,0.2,0.3,0.3,0.4c0.1,0.1,0.3,0.1,0.4,0.1c0.3,0,0.5-0.2,0.6-0.5c0.2-0.3,0.2-0.9,0.2-1.6c0-1.5-0.3-2.3-0.9-2.3
	c-0.2,0-0.5,0.1-0.7,0.4V58.5z M24.1,55.3c-0.2-0.4-0.4-0.6-0.7-0.6c-0.3,0-0.5,0.2-0.7,0.6c-0.2,0.4-0.2,1-0.2,1.7
	c0,0.7,0.1,1.2,0.2,1.5c0.2,0.3,0.4,0.5,0.7,0.5c0.3,0,0.5-0.2,0.7-0.5V55.3z M23.3,52.4l1.4-0.6h0.2v3c0.3-0.3,0.6-0.4,0.9-0.4
	c0.4,0,0.8,0.2,1.1,0.7c0.3,0.5,0.5,1.1,0.5,1.8c0,0.7-0.2,1.3-0.5,1.8c-0.3,0.5-0.7,0.8-1.1,0.8c-0.3,0-0.6-0.2-0.9-0.5v1.5
	c0,0.3,0,0.6,0.1,0.7c0,0.1,0.1,0.2,0.2,0.2c0.1,0,0.3,0.1,0.6,0.1v0.2h-2.5v-0.2c0.3,0,0.6-0.1,0.7-0.2c0.1-0.1,0.1-0.4,0.1-0.8V59
	c-0.3,0.3-0.5,0.5-0.9,0.5c-0.5,0-0.9-0.3-1.2-0.8c-0.3-0.5-0.5-1.1-0.5-1.8c0-0.7,0.1-1.2,0.4-1.7c0.3-0.5,0.7-0.8,1.2-0.8
	c0.4,0,0.7,0.2,0.9,0.5v-1.3c0-0.4,0-0.7-0.1-0.9c-0.1-0.1-0.1-0.2-0.3-0.2c-0.1,0-0.2,0-0.4,0.1L23.3,52.4z"/>
<path fill="#A7955D" d="M133.2,58.9c0.2,0.1,0.4,0.1,0.6,0.1c0.4,0,0.7-0.1,0.9-0.3c0.2-0.2,0.3-0.4,0.3-0.7c0-0.3-0.1-0.6-0.4-0.7
	c-0.3-0.2-0.6-0.3-1-0.3c-0.1,0-0.2,0-0.4,0V58.9z M133.2,56.6c0.1,0,0.2,0,0.3,0c0.5,0,0.8-0.1,1-0.3c0.2-0.2,0.3-0.4,0.3-0.7
	c0-0.3-0.1-0.5-0.3-0.7c-0.2-0.1-0.5-0.2-1-0.2h-0.3V56.6z M134.6,56.7c0.8,0.2,1.3,0.6,1.3,1.2c0,0.4-0.2,0.8-0.5,1
	c-0.3,0.2-0.8,0.3-1.5,0.3h-2.3v-0.2c0.3,0,0.5-0.1,0.6-0.2c0.1-0.1,0.1-0.4,0.1-0.8v-2.6c0-0.4,0-0.6-0.1-0.7
	c0-0.1-0.1-0.1-0.2-0.2c-0.1-0.1-0.2-0.1-0.5-0.1v-0.2h2.1c0.4,0,0.7,0,1,0.1c0.3,0.1,0.5,0.2,0.6,0.4c0.2,0.2,0.2,0.4,0.2,0.7
	C135.6,56.2,135.3,56.6,134.6,56.7z M128.7,54.7c-0.2,0-0.4,0.1-0.5,0.2c-0.2,0.1-0.3,0.3-0.4,0.6c-0.1,0.3-0.2,0.6-0.2,1.1
	c0,0.7,0.1,1.3,0.4,1.8c0.3,0.5,0.6,0.8,1.1,0.8c0.3,0,0.6-0.1,0.8-0.4c0.2-0.3,0.3-0.8,0.3-1.4c0-0.9-0.2-1.5-0.5-2
	C129.4,54.8,129.1,54.7,128.7,54.7z M128.8,54.3c0.7,0,1.3,0.3,1.7,0.8c0.4,0.5,0.5,1,0.5,1.6c0,0.4-0.1,0.9-0.3,1.3
	c-0.2,0.4-0.5,0.8-0.8,1c-0.3,0.2-0.7,0.3-1.2,0.3c-0.7,0-1.2-0.3-1.7-0.9c-0.3-0.5-0.5-1-0.5-1.6c0-0.4,0.1-0.9,0.3-1.3
	c0.2-0.4,0.5-0.8,0.8-1C128.1,54.4,128.5,54.3,128.8,54.3z M122.7,55.8v1.8c0,0.4,0,0.6,0,0.8c0,0.2,0.2,0.4,0.3,0.5
	c0.2,0.2,0.4,0.2,0.7,0.2c0.3,0,0.6-0.1,0.8-0.4c0.3-0.4,0.4-0.9,0.4-1.5c0-0.7-0.2-1.3-0.5-1.7c-0.2-0.3-0.5-0.4-0.8-0.4
	c-0.2,0-0.3,0-0.5,0.1C123.2,55.3,123,55.5,122.7,55.8z M121.1,54.9l1.4-0.6h0.2v1.1c0.2-0.4,0.5-0.7,0.7-0.9
	c0.2-0.2,0.5-0.3,0.8-0.3c0.5,0,0.8,0.2,1.2,0.6c0.4,0.5,0.6,1.1,0.6,1.8c0,0.8-0.2,1.5-0.7,2.1c-0.4,0.4-0.8,0.7-1.4,0.7
	c-0.2,0-0.5,0-0.6-0.1c-0.1-0.1-0.3-0.2-0.5-0.3v1.5c0,0.3,0,0.5,0.1,0.6c0,0.1,0.1,0.2,0.2,0.2c0.1,0.1,0.3,0.1,0.5,0.1v0.2h-2.4
	v-0.2h0.1c0.2,0,0.3,0,0.5-0.1c0.1,0,0.1-0.1,0.1-0.2c0-0.1,0.1-0.3,0.1-0.6v-4.6c0-0.3,0-0.5,0-0.6c0-0.1-0.1-0.1-0.1-0.2
	c-0.1,0-0.1-0.1-0.2-0.1c-0.1,0-0.2,0-0.3,0.1L121.1,54.9z"/>
</svg>
