<?xml version="1.0" encoding="utf-8"?>
<!-- Generator: Adobe Illustrator 17.1.0, SVG Export Plug-In . SVG Version: 6.00 Build 0)  -->
<!DOCTYPE svg PUBLIC "-//W3C//DTD SVG 1.1//EN" "http://www.w3.org/Graphics/SVG/1.1/DTD/svg11.dtd">
<svg version="1.1" id="Layer_1" xmlns="http://www.w3.org/2000/svg" xmlns:xlink="http://www.w3.org/1999/xlink" x="0px" y="0px"
	 viewBox="0 53.9 595.3 596" enable-background="new 0 53.9 595.3 596" xml:space="preserve">
<path d="M98.8,138.8c-2.3,0-4.6,0.9-6.3,2.6s-2.6,4-2.6,6.3v62.6c0,2.5,1,4.7,2.6,6.3c1.6,1.6,3.7,2.5,6.2,2.5
	c2.5,0,4.8-0.9,6.5-2.5c1.6-1.6,2.5-4,2.5-6.4l0.1-40.9L285,346.5L107.8,523.8l-0.1-40.9c0-2.5-0.9-4.8-2.5-6.4
	c-1.6-1.6-4-2.5-6.5-2.5s-4.6,0.9-6.2,2.5c-1.6,1.6-2.6,3.8-2.6,6.3v62.6c0,2.3,0.9,4.6,2.6,6.3s4,2.6,6.3,2.6h62.6
	c2.5,0,4.7-1,6.3-2.6c1.6-1.6,2.5-3.7,2.5-6.2c0-2.5-0.9-4.8-2.5-6.5s-4-2.5-6.4-2.5l-40.9-0.1l177.2-177.2l177.2,177.2l-40.9,0.1
	c-2.5,0-4.8,0.9-6.4,2.5c-1.6,1.6-2.5,4-2.5,6.5s0.9,4.6,2.5,6.2c1.6,1.6,3.8,2.6,6.3,2.6h62.6c2.3,0,4.6-0.9,6.3-2.6s2.6-4,2.6-6.3
	v-62.6c0-2.5-1-4.7-2.6-6.3c-1.6-1.6-3.7-2.5-6.2-2.5c-2.5,0-4.8,0.9-6.5,2.5c-1.6,1.6-2.5,4-2.5,6.4l-0.1,40.9L310.3,346.5
	l177.2-177.2l0.1,40.9c0,2.5,0.9,4.8,2.5,6.4c1.6,1.6,4,2.5,6.5,2.5s4.6-0.9,6.2-2.5s2.6-3.8,2.6-6.3v-62.6c0-2.3-0.9-4.6-2.6-6.3
	c-1.7-1.7-4-2.6-6.3-2.6h-62.6c-2.5,0-4.7,1-6.3,2.6c-1.6,1.6-2.5,3.7-2.5,6.2c0,2.5,0.9,4.8,2.5,6.5c1.6,1.6,4,2.5,6.4,2.5
	l40.9,0.1L297.6,333.9L120.4,156.7l40.9-0.1c2.5,0,4.8-0.9,6.4-2.5c1.6-1.6,2.5-4,2.5-6.5s-0.9-4.6-2.5-6.2
	c-1.6-1.6-3.8-2.6-6.3-2.6L98.8,138.8z"/>
<path d="M556.6,614.4c4.9,0,8.9-4,8.9-8.9V87.6c0-4.9-4-8.9-8.9-8.9H38.7c-4.9,0-8.9,4-8.9,8.9v517.9c0,4.9,4,8.9,8.9,8.9H556.6z
	 M547.7,596.6h-500v-500h500V596.6z"/>
<path stroke="#000000" stroke-width="5" stroke-miterlimit="10" d="M859.4,613.4c-29.1,0-57.5-14.2-75.1-39.3L681.4,428.7
	c-18.3-25.7-21.7-60.2-9.5-89.3l88.7-205.1c10.8-25.7,32.5-44,58.9-52.1c26.4-7.4,54.8-2.7,77.8,12.9l324.2,225.4
	c28.4,19.6,42.6,51.4,39.3,86c-4.1,33.8-25,62.3-56.9,75.1l-310,125.2C883.1,610.7,870.9,613.4,859.4,613.4z M684.8,344
	c-10.8,25-8.1,54.1,8.1,76.5l102.9,146.2c21,29.8,59.6,41.3,93.4,27.8l310-124.5c27.1-10.8,45.3-35.2,48.7-64.3s-8.8-56.2-33.2-73.1
	L889.9,106.5c-19.6-13.5-43.3-17.6-66.3-10.8c-23,6.8-41.3,22.3-50.8,44L684.8,344z"/>
<path d="M1792.9,485.6c-4.9,0-9.9-0.7-14.9-2.1c-11-3.3-19.8-10.5-26.4-21.6c-0.2-0.3-0.4-0.7-0.5-1c-4.7-10.5-4.7-21.7-0.2-33.5
	c4.1-10.7,12.1-18.7,23.6-23.8c12-4.8,23.3-5.5,34.2-2.4c0.3,0.1,0.5,0.2,0.8,0.3c11.5,4.4,20.1,11.8,25.7,21.8
	c0.1,0.3,0.3,0.5,0.4,0.8c4.9,11.1,5.1,22.3,0.8,33.2c-4.4,10.4-12.5,18.5-24.1,24.2C1805.7,484.4,1799.4,485.6,1792.9,485.6z
	 M1768.3,452.6c4,6.6,8.9,10.7,15,12.5c7.3,2.1,14.4,1.8,20.9-0.9c7-3.4,11.9-8.1,14.4-14c2.3-5.8,2.2-11.7-0.4-17.9
	c-3.3-5.8-8.3-10-15.2-12.7c-6.7-1.8-13.7-1.3-21.2,1.7c-6.5,2.9-10.9,7.2-13.1,13.1C1766.1,441.1,1766,447.1,1768.3,452.6z"/>
<path d="M1669.1,613.9L1669.1,613.9c-35.5,0-73.3-6.4-112.3-19.2c-27.5-8.7-55.2-23-82.1-42.5c-90.1-72.3-130.1-156.6-119.4-250.7
	c2-16.5,6.9-35.2,14.6-55.6c23.1-57.6,59-101.9,106.9-132c49.1-31.7,105.1-42.2,166-31c84,13.1,124,38.1,122,76.3
	c0,0.5-0.1,0.9-0.2,1.4c-0.6,3.1-1.1,5.8-1.6,8.1c-0.2,1.1-0.6,2.2-1.2,3.2c-2.1,3.5-6.6,9.9-14.2,20.2c-7.8,11.7-9.1,14.9-9.3,15.4
	c-0.1,0.5-0.3,0.9-0.5,1.4c-6.5,14.4-1.8,29.2,14.2,45.1c3.8,2.6,16.7,12,67.6,49.8c31.2,23.1,52.9,46.5,64.4,69.4
	c15.4,32,15.4,68.8,0.1,109.4c-21.2,52.2-60.7,90.4-117.6,113.6C1735.7,608,1703,613.9,1669.1,613.9z M1596.2,97.7
	c-39.1,0-75.8,10.9-109.1,32.4c-44.5,28-77.9,69.3-99.3,122.8c-7.1,18.8-11.6,36-13.4,50.9c-10,87.1,27.7,165.5,112,233.2
	c24.9,18,50.7,31.3,76.3,39.5c37.1,12.1,72.9,18.2,106.5,18.2l0,0c31.5,0,62-5.4,90.5-16.1c51.7-21.1,87.7-55.7,106.8-102.8
	c13.3-35.3,13.6-67,0.6-94c-10.1-20.1-29.8-41.2-58.6-62.5c-51.5-38.3-65-48.1-67.1-49.5c-0.7-0.4-1.3-0.9-1.9-1.4
	c-27.8-27.2-25.9-51.1-19.2-66.6c0.9-2.9,3.4-7.9,11.9-20.6c7.3-10,10.9-15,12.6-17.6c0.3-1.8,0.7-3.8,1.1-5.9
	c0.9-32.3-57.1-48.1-106.1-55.7C1624.7,99.1,1610.1,97.7,1596.2,97.7z"/>
<path d="M1611.6,275.1c-6.1,0-12.2-1-18.1-2.9c-15.3-5-26.8-14.5-34.2-28.2c-7.3-13.8-8.1-28.4-2.5-43.6
	c6.2-14.4,16.6-25.2,31.2-32.4c15.3-6.4,30-6.9,45.2-2.5c15.7,5.4,27.1,14.8,34.4,28.2c7.2,14.1,7.7,28.4,1.7,42.8
	c-6.2,15.2-16.7,26.2-31.1,32.5C1629.4,273,1620.4,275.1,1611.6,275.1z M1613.9,181.8c-6,0-12.1,1.2-17.9,3.6
	c-10,4.9-17.1,12.2-21.3,22c-3.5,9.5-3.1,18.7,1.6,27.5c5,9.3,12.6,15.5,23.2,19c10,3.3,20.3,2.5,31-2.5c10-4.4,16.9-11.7,21.3-22.4
	c3.8-9.1,3.5-17.8-0.9-26.5c-4.9-8.9-12.6-15.2-23.3-18.9C1623.2,182.5,1618.4,181.8,1613.9,181.8z"/>
<path d="M1447.6,425.1c-5.3,0-10.6-0.9-15.9-2.7c-11.5-3.5-20-10.8-25-21.6c-6.1-10.9-6.7-22.6-1.7-34c3.7-10.8,11.4-19.1,23-24.6
	c11.7-5,22.8-5.4,33.9-1.7c12.4,4.2,21.2,11.2,26.4,20.8c5.7,11.9,6.1,23.5,1.4,34.9c-4.8,11-12.4,19.2-22.5,24.6
	c-0.3,0.1-0.5,0.3-0.8,0.4C1460.3,423.8,1454,425.1,1447.6,425.1z M1447.2,357.2c-3.8,0-7.4,0.8-11.3,2.5
	c-6.6,3.2-10.9,7.7-12.8,13.6c-0.1,0.3-0.2,0.7-0.4,1c-2.8,6.1-2.5,11.6,0.9,17.4c0.1,0.3,0.3,0.5,0.4,0.8c2.7,6,7,9.7,13.5,11.7
	c7.8,2.6,14.3,2.3,21.2-0.4c6.2-3.4,10.6-8.3,13.6-15c2.5-6.2,2.3-12.3-0.8-18.8c-2.6-4.8-7.8-8.7-15.5-11.3
	C1453,357.7,1450.1,357.2,1447.2,357.2z"/>
<path d="M1534.1,512.2c-5.2,0-10.5-0.9-15.9-2.7c-11.4-3.1-20.5-10-26.7-20.5c-0.1-0.3-0.3-0.5-0.4-0.8c-4.8-10.2-4.7-21,0.4-32.3
	c4.3-11.5,12.1-20.1,23.1-25.6c0.3-0.1,0.6-0.3,0.9-0.4c10.9-4.1,22.5-4.4,34.3-0.8c11.3,3.8,19.8,11,25.7,21.4
	c0.1,0.2,0.2,0.4,0.3,0.6c5,10.6,5.1,21.9,0.1,33.4c-3.9,10.8-11.9,19-23.6,23.9C1546.7,510.8,1540.4,512.2,1534.1,512.2z
	 M1508.3,479.7c3.6,5.9,8.6,9.7,15.4,11.5c8.5,2.7,14.6,2.4,21-0.4c7-2.9,11.2-7.1,13.4-13.4c2.9-6.8,3-12.3,0.5-17.8
	c-3.5-6.1-8.3-10.1-14.7-12.2c-6.9-2.1-14.3-2.1-21.1,0.4c-6.5,3.3-10.9,8.3-13.4,15.2c-0.1,0.2-0.2,0.5-0.3,0.7
	C1506.3,469.6,1506.1,474.7,1508.3,479.7z"/>
<path d="M1675.2,551.7c-4.3,0-8.7-0.6-13-1.8c-0.2-0.1-0.5-0.1-0.7-0.2c-11.4-4.1-20.2-11.1-26.2-20.8c-0.4-0.7-0.7-1.4-1-2.1
	c-3.4-10.4-3.4-21.1,0-32c4.5-11.9,12.5-20.3,23.9-25.6c11.4-4.9,22.8-5.5,34.5-2.1c12.5,4.2,21,11.8,25.8,23
	c5.6,10.7,6,22.2,1,33.2c-4.2,10.7-12.5,19-24.5,24C1688.8,550.1,1682,551.7,1675.2,551.7z M1667.6,531.5c6.8,1.8,13.1,1.3,19.5-1.8
	c7.5-3.2,12.2-7.7,14.6-14c2.8-6.2,2.6-11.5-0.5-17.2c-0.2-0.3-0.3-0.6-0.4-0.9c-2.6-6.2-7-10.1-14-12.4c-6.6-1.9-14-1.7-21,1.3
	c-6.6,3.1-11.1,7.8-13.6,14.4c-1.9,6.1-2,12.4-0.2,18.7C1655.8,525.1,1660.9,529,1667.6,531.5z"/>
</svg>
